<svg width="38" height="19" viewBox="0 0 38 19" fill="none" xmlns="http://www.w3.org/2000/svg">
<path fill-rule="evenodd" clip-rule="evenodd" d="M12.8049 13.7988L16.4219 17.3701C18.623 19.5433 22.1917 19.5433 24.3928 17.3701C25.1187 16.6533 25.6052 15.7897 25.8523 14.8761L28.3783 17.3701C30.5794 19.5433 34.1481 19.5433 36.3492 17.3701C38.5503 15.1968 38.5503 11.6733 36.3492 9.5L28.3783 1.62994C26.1771 -0.543314 22.6084 -0.543314 20.4073 1.62994C19.6814 2.34668 19.1949 3.21029 18.9478 4.12389L16.4219 1.62994C14.2208 -0.543313 10.6521 -0.543313 8.45097 1.62995L1.89157 8.10635C-0.630525 10.5965 -0.630525 14.6339 1.89158 17.1241C4.41368 19.6143 8.50281 19.6143 11.0249 17.1241C11.9797 16.1815 12.573 15.0171 12.8049 13.7988ZM14.4292 3.59746C13.3286 2.51083 11.5443 2.51083 10.4437 3.59746C9.34362 4.68362 9.34315 6.44435 10.4423 7.53109L18.4146 15.4025C19.5152 16.4892 21.2995 16.4892 22.4001 15.4025C23.5 14.3165 23.5006 12.556 22.4018 11.4692L14.4292 3.59746ZM9.03219 10.0739L6.45824 7.53249L3.88431 10.0739C2.46276 11.4774 2.46276 13.753 3.88431 15.1566C5.30585 16.5602 7.61064 16.5602 9.03219 15.1566C10.4537 13.753 10.4537 11.4774 9.03219 10.0739ZM22.3977 7.53018C21.2995 6.44336 21.3003 4.68331 22.4001 3.59746C23.5006 2.51083 25.285 2.51083 26.3855 3.59746L34.3564 11.4675C35.457 12.5541 35.457 14.3159 34.3564 15.4025C33.2559 16.4892 31.4715 16.4892 30.371 15.4025L22.3977 7.53018Z" fill="#DD2590"/>
</svg>
