<svg width="29" height="29" viewBox="0 0 29 29" fill="none" xmlns="http://www.w3.org/2000/svg">
<path fill-rule="evenodd" clip-rule="evenodd" d="M6.44444 0C2.88528 0 0 2.88528 0 6.44444V22.5556C0 26.1147 2.88528 29 6.44444 29H22.5556C26.1147 29 29 26.1147 29 22.5556V6.44444C29 2.88528 26.1147 0 22.5556 0H6.44444ZM6.44444 4.02778C5.10976 4.02778 4.02778 5.10976 4.02778 6.44445V22.5556C4.02778 23.8902 5.10976 24.9722 6.44444 24.9722H12.0833C13.418 24.9722 14.5 23.8902 14.5 22.5556V6.44444C14.5 5.10976 13.418 4.02778 12.0833 4.02778H6.44444Z" fill="#5925DC"/>
</svg>
