<svg width="38" height="22" viewBox="0 0 38 22" fill="none" xmlns="http://www.w3.org/2000/svg">
<path fill-rule="evenodd" clip-rule="evenodd" d="M14.5096 18.1409C15.166 17.3692 16.1382 16.9231 17.1635 16.9231H31.0909C34.9067 16.9231 38 13.8924 38 10.1538V6.76923C38 3.03069 34.9067 0 31.0909 0H28.3908C27.3655 0 26.3932 0.44617 25.7369 1.21784L23.4904 3.85909C22.834 4.63075 21.8618 5.07692 20.8365 5.07692H6.90909C3.09331 5.07692 0 8.10761 0 11.8462V15.2308C0 18.9693 3.09331 22 6.90909 22H9.60925C10.6345 22 11.6068 21.5538 12.2631 20.7822L14.5096 18.1409ZM32.8182 6.76923C32.8182 5.83459 32.0449 5.07692 31.0909 5.07692H25.7998C24.7746 5.07692 23.8023 5.52309 23.146 6.29476L20.8995 8.93601C20.2431 9.70768 19.2709 10.1538 18.2456 10.1538H6.90909C5.95515 10.1538 5.18182 10.9115 5.18182 11.8462V15.2308C5.18182 16.1654 5.95515 16.9231 6.90909 16.9231H12.2002C13.2254 16.9231 14.1977 16.4769 14.854 15.7052L17.1005 13.064C17.7569 12.2923 18.7291 11.8462 19.7544 11.8462H31.0909C32.0449 11.8462 32.8182 11.0885 32.8182 10.1538V6.76923Z" fill="#0A0D12"/>
</svg>
