<svg width="31" height="38" viewBox="0 0 31 38" fill="none" xmlns="http://www.w3.org/2000/svg">
<path fill-rule="evenodd" clip-rule="evenodd" d="M21.2069 1.13254C21.5623 0.950819 21.987 0.95626 22.3374 1.14702L30.3867 5.52916C30.7652 5.73526 31 6.12634 31 6.55078L30.9994 15.3147C30.9994 15.75 30.7525 16.1493 30.3587 16.3506L9.79253 26.8675C9.43713 27.0492 9.01233 27.0437 8.66192 26.8529L0.61479 22.4709C0.236362 22.2648 0.00163551 21.8739 0.00155999 21.4496L1.82404e-08 12.6856C-7.74923e-05 12.2501 0.246879 11.8508 0.640774 11.6494L21.2069 1.13254ZM2.38474 13.3937L2.38583 19.5218L20.5676 10.2243L20.5665 4.09616L2.38474 13.3937ZM22.9511 4.15462L22.9522 10.245L28.615 13.3286L28.6153 7.23832L22.9511 4.15462ZM27.2928 15.2823L21.7422 12.2597L3.70818 21.4817L9.25876 24.5043L27.2928 15.2823Z" fill="#1570EF"/>
<path opacity="0.5" fill-rule="evenodd" clip-rule="evenodd" d="M9.79308 36.8675C9.43772 37.0492 9.01297 37.0437 8.66258 36.853L0.613339 32.4708C0.234763 32.2647 -2.62529e-05 31.8737 4.87229e-07 31.4492L0.000556295 22.6853C0.000584943 22.25 0.247524 21.8507 0.64133 21.6494L21.2075 11.1325C21.5629 10.9508 21.9877 10.9563 22.3381 11.1471L30.3852 15.5291C30.7636 15.7352 30.9984 16.1261 30.9984 16.5504L31 25.3144C31.0001 25.7499 30.7531 26.1492 30.3592 26.3506L9.79308 36.8675ZM28.6153 24.6063L28.6142 18.4782L10.4324 27.7757L10.4335 33.9038L28.6153 24.6063ZM8.04889 33.8454L8.0478 27.755L2.38505 24.6714L2.38466 30.7617L8.04889 33.8454ZM3.70717 22.7177L9.25776 25.7403L27.2918 16.5183L21.7412 13.4957L3.70717 22.7177Z" fill="#1570EF"/>
</svg>
