<svg width="18" height="22" viewBox="0 0 18 22" fill="none" xmlns="http://www.w3.org/2000/svg">
<path d="M8.99999 19.1362L13.9497 14.1244C16.6834 11.3566 16.6834 6.86888 13.9497 4.10097C11.2161 1.33307 6.78391 1.33307 4.05024 4.10097C1.31658 6.86888 1.31658 11.3566 4.05024 14.1244L8.99999 19.1362ZM8.99999 22L2.63604 15.5564C-0.878679 11.9976 -0.878679 6.22779 2.63604 2.66905C6.15075 -0.889684 11.8492 -0.889684 15.364 2.66905C18.8787 6.22779 18.8787 11.9976 15.364 15.5564L8.99999 22ZM8.99999 11.1378C10.1046 11.1378 11 10.2311 11 9.11271C11 7.9943 10.1046 7.08766 8.99999 7.08766C7.89539 7.08766 6.99999 7.9943 6.99999 9.11271C6.99999 10.2311 7.89539 11.1378 8.99999 11.1378ZM8.99999 13.1628C6.79085 13.1628 4.99999 11.3495 4.99999 9.11271C4.99999 6.8759 6.79085 5.06262 8.99999 5.06262C11.2091 5.06262 13 6.8759 13 9.11271C13 11.3495 11.2091 13.1628 8.99999 13.1628Z" fill="#206BB6"/>
</svg>
