<svg width="45" height="32" viewBox="0 0 45 32" fill="none" xmlns="http://www.w3.org/2000/svg">
<path d="M37.9964 6.49989C37.8573 2.45363 34.1552 -0.452812 30.2436 0.0583246C30.1808 0.0663797 30.126 0.0868807 30.0785 0.114708C28.8465 -0.0182025 27.7877 0.356362 26.9316 1.03556C23.5126 3.10244 21.5356 8.01938 24.3209 11.4179C27.2979 15.0504 33.9423 14.8773 36.2711 10.727C36.3028 10.6703 36.3134 10.615 36.3142 10.5619C37.3832 9.57147 38.0552 8.20904 37.9964 6.49989ZM29.8853 0.629871C29.9298 0.763147 30.0471 0.863838 30.2432 0.851755C33.2633 0.665022 36.1465 2.20099 36.9526 5.29271C37.8328 8.66892 35.3441 11.0976 32.153 11.512C29.7808 11.8203 26.8491 11.1122 25.7702 8.74654C24.3352 5.5999 26.3315 1.03629 29.8853 0.629871ZM24.4469 10.6304C22.8793 8.1263 23.5353 5.47065 25.1463 3.44991C24.6065 4.69077 24.3808 6.10445 24.5222 7.3801C24.9119 10.8987 28.3692 12.6152 31.6223 12.4241C32.6771 12.3622 33.7137 12.1099 34.6348 11.6808C31.8751 14.2021 26.5357 13.9678 24.4469 10.6304Z" fill="#6348AD"/>
<path d="M33.9017 5.95485C33.6885 5.42394 33.1737 5.22089 32.6166 5.13164C32.6088 4.6185 32.5968 4.10644 32.5825 3.59402C32.6912 3.59651 32.7998 3.59936 32.9096 3.60611C33.1505 3.62069 33.1985 3.26224 32.9666 3.20819C32.8384 3.17832 32.7058 3.1577 32.5724 3.14063C32.5687 3.01972 32.5687 2.89775 32.5646 2.77685C32.553 2.43014 31.9869 2.42801 31.9955 2.77685C31.9981 2.88531 32.0041 2.99448 32.0071 3.10329C31.6958 3.104 31.3814 3.13565 31.0761 3.20073C30.9869 2.84335 30.8861 2.48988 30.7599 2.14708C30.6658 1.89212 30.2852 1.99417 30.3361 2.25803C30.4073 2.62714 30.4725 2.99092 30.5343 3.35292C30.2871 3.4436 30.0522 3.55739 29.8382 3.69785C29.3448 4.02145 28.9305 4.63237 29.3355 5.17822C29.6217 5.56404 30.2339 5.63979 30.8415 5.64832C30.8891 6.18101 30.9169 6.71655 30.9214 7.25848C30.407 7.27271 29.8937 7.22612 29.3759 7.11802C28.999 7.03943 28.8372 7.5803 29.2156 7.66956C29.5411 7.74637 30.196 7.8054 30.9191 7.78939C30.9127 8.09165 30.9004 8.39605 30.8775 8.70507C30.8625 8.9099 31.2286 8.96145 31.2597 8.75414C31.3084 8.43054 31.3451 8.10126 31.3754 7.76948C31.6598 7.75063 31.9456 7.71827 32.2195 7.67062C32.245 8.06392 32.2626 8.45828 32.2929 8.85051C32.3079 9.04751 32.6155 9.05213 32.6193 8.85051C32.6271 8.42912 32.6219 8.00596 32.6245 7.58386C33.5821 7.34099 34.2628 6.85488 33.9017 5.95485ZM30.534 4.98727C30.1039 5.05305 29.9349 4.81267 30.0278 4.26611C30.196 4.14022 30.377 4.0339 30.5707 3.94784C30.5898 3.9386 30.6096 3.93219 30.6291 3.92366C30.6864 4.29348 30.7348 4.66153 30.7775 5.02958C30.6898 5.02247 30.6063 5.01074 30.534 4.98727ZM31.1997 3.72559C31.4702 3.65661 31.7452 3.61891 32.0247 3.60149C32.0393 4.09151 32.0569 4.58117 32.0775 5.07154C31.8535 5.05732 31.6343 5.05056 31.4391 5.03953C31.4219 5.03847 31.4005 5.03918 31.3825 5.03882C31.3425 4.59717 31.2863 4.15765 31.1997 3.72559ZM31.9423 7.14291C31.7666 7.18132 31.5916 7.20443 31.4166 7.2247C31.447 6.7009 31.4496 6.17248 31.4253 5.64441C31.6564 5.63979 31.8707 5.63588 32.0423 5.6501C32.0595 5.65153 32.0794 5.65401 32.0981 5.65579C32.1206 6.13478 32.1547 6.61236 32.1832 7.091C32.0966 7.1102 32.0138 7.12727 31.9423 7.14291ZM33.0883 6.71691C32.9834 6.82821 32.813 6.90893 32.6271 6.97187C32.6275 6.56826 32.635 6.16573 32.6309 5.76212C33.1217 5.90756 33.5731 6.20271 33.0883 6.71691Z" fill="#6348AD"/>
<path d="M43.9964 23.4999C43.8573 19.4536 40.1554 16.5472 36.2436 17.0583C36.1808 17.0664 36.126 17.0869 36.0785 17.1147C34.8466 16.9818 33.7879 17.3564 32.9314 18.0356C29.5126 20.1024 27.5357 25.0194 30.3209 28.4179C33.2977 32.0504 39.9418 31.8773 42.2704 27.727C42.3022 27.6699 42.3128 27.615 42.3135 27.5619C43.3832 26.5718 44.0552 25.209 43.9964 23.4999ZM35.8857 17.6299C35.9302 17.7632 36.0475 17.8638 36.2436 17.8518C39.2636 17.6647 42.1466 19.201 42.9526 22.2927C43.8328 25.6689 41.3442 28.0976 38.1533 28.512C35.7812 28.8203 32.8496 28.1122 31.7708 25.7469C30.3358 22.6003 32.3317 18.0367 35.8857 17.6299ZM30.4472 27.6307C28.8797 25.1267 29.5356 22.471 31.1466 20.4503C30.6068 21.6911 30.3811 23.1048 30.5221 24.3808C30.9118 27.8995 34.3689 29.6159 37.6219 29.4248C38.6767 29.3629 39.7132 29.1107 40.6342 28.6816C37.875 31.2021 32.5363 30.9681 30.4472 27.6307Z" fill="#6348AD"/>
<path d="M39.9018 22.9549C39.6887 22.4239 39.1739 22.2209 38.6168 22.1316C38.609 21.6185 38.597 21.1064 38.5828 20.594C38.6914 20.5965 38.8 20.5994 38.9098 20.6061C39.1507 20.6207 39.1986 20.2622 38.9664 20.2082C38.8382 20.1783 38.7056 20.1577 38.5723 20.1406C38.5685 20.0197 38.5685 19.8978 38.5644 19.7769C38.5528 19.4301 37.9867 19.428 37.9953 19.7769C37.998 19.8853 38.0039 19.9945 38.0069 20.1033C37.6956 20.104 37.3813 20.1357 37.076 20.2007C36.9868 19.8433 36.886 19.4899 36.7598 19.1471C36.6658 18.8921 36.2851 18.9942 36.3361 19.258C36.4073 19.6271 36.4725 19.9909 36.5343 20.3529C36.287 20.4432 36.0521 20.5574 35.8382 20.6979C35.3448 21.0211 34.9305 21.6324 35.3355 22.1782C35.6217 22.5641 36.2338 22.6398 36.8415 22.6483C36.889 23.181 36.9168 23.7166 36.9213 24.2585C36.4069 24.2727 35.8936 24.2261 35.3759 24.118C34.999 24.0394 34.8372 24.5803 35.2156 24.6696C35.5411 24.7464 36.196 24.8054 36.919 24.7894C36.9126 25.0917 36.9003 25.3961 36.8774 25.7051C36.8624 25.9099 37.2285 25.9615 37.2596 25.7541C37.3083 25.4306 37.345 25.1013 37.3753 24.7695C37.6597 24.7506 37.9455 24.7183 38.2194 24.6706C38.2448 25.0639 38.2624 25.4583 38.2928 25.8505C38.3078 26.0475 38.6153 26.0521 38.6191 25.8505C38.627 25.4291 38.6217 25.006 38.6243 24.5839C39.5823 24.341 40.2626 23.8549 39.9018 22.9549ZM36.5343 21.9873C36.1042 22.0531 35.9352 21.8127 36.0281 21.2661C36.1964 21.1402 36.3773 21.0339 36.571 20.9478C36.5901 20.939 36.6099 20.9322 36.6294 20.9237C36.6867 21.2935 36.7351 21.6615 36.7778 22.0296C36.6901 22.0225 36.6066 22.0107 36.5343 21.9873ZM37.2 20.7256C37.4705 20.6566 37.7454 20.6189 38.0249 20.6015C38.0395 21.0915 38.0571 21.5812 38.0777 22.0715C37.8537 22.0573 37.6346 22.0506 37.4394 22.0395C37.4221 22.0385 37.4008 22.0392 37.3828 22.0388C37.3424 21.5968 37.2862 21.1573 37.2 20.7256ZM37.9425 24.1429C37.7668 24.1813 37.5919 24.2044 37.4169 24.2247C37.4472 23.7009 37.4499 23.1725 37.4255 22.6444C37.6567 22.6398 37.871 22.6359 38.0425 22.6501C38.0598 22.6515 38.0796 22.654 38.0984 22.6558C38.1208 23.1351 38.1549 23.6124 38.1834 24.091C38.0969 24.1102 38.0141 24.1273 37.9425 24.1429ZM39.0885 23.7166C38.9836 23.8279 38.8132 23.9086 38.627 23.9712C38.6273 23.5676 38.6348 23.165 38.6307 22.7614C39.1218 22.9076 39.5733 23.2024 39.0885 23.7166Z" fill="#6348AD"/>
<path d="M25.5899 22.1438C25.1393 20.3533 24.5443 18.6023 23.8216 16.9047C23.3753 15.856 22.9142 14.2481 21.9499 13.5609C20.2469 12.3478 16.6483 13.4119 14.844 13.8712C11.6282 14.6898 8.46632 16.0038 5.47501 17.443C3.92221 18.1899 2.20072 19.5043 3.40377 21.36C3.43969 21.4152 3.48322 21.4522 3.52929 21.4792C3.73101 21.9754 3.94035 22.4819 4.15477 22.9905C3.99042 23.1281 4.05537 23.4776 4.30896 23.4472C4.3213 23.4458 4.33327 23.4439 4.3456 23.4425C5.25769 25.5638 6.31743 27.7034 7.74035 29.4141C9.4818 31.5079 11.8114 31.0886 14.2167 30.6107C17.5099 29.9564 20.7621 28.9237 23.8049 27.4889C26.4033 26.2642 26.2477 24.7572 25.5899 22.1438ZM3.98825 21.3863C4.05536 21.3025 4.08184 21.1883 4.04085 21.0643C4.09563 21.0551 4.15042 21.0442 4.2052 21.035C4.11921 21.1382 4.07894 21.2835 4.10942 21.4126C4.13808 21.5356 4.16057 21.6278 4.18125 21.709C4.17508 21.7123 4.16892 21.7156 4.16275 21.7193C4.10506 21.608 4.04412 21.4983 3.98825 21.3863ZM21.1031 16.5813C20.8267 16.6497 20.5495 16.7119 20.2727 16.7767C20.4896 16.7053 20.7066 16.6376 20.9228 16.5626C21.3183 16.4257 21.3331 15.9563 21.1125 15.7297C21.1746 15.7147 21.2374 15.7016 21.2994 15.6873C21.3524 15.8472 21.409 16.0035 21.4685 16.1579C21.3295 16.26 21.2054 16.399 21.1031 16.5813ZM14.8281 18.3944C14.6031 18.4636 14.3793 18.5357 14.154 18.603C14.1482 18.6038 14.1438 18.6016 14.138 18.6023C13.518 18.6894 12.9023 18.7915 12.287 18.8976C13.1697 18.5825 14.0451 18.2455 14.9112 17.8869C14.745 18.0252 14.7363 18.2243 14.8281 18.3944ZM8.80082 21.7069C9.03664 21.5927 9.02722 21.3673 8.90785 21.2063C8.97243 21.2633 9.05516 21.2981 9.15239 21.2996C9.12264 21.4017 9.12445 21.5111 9.15384 21.6102C9.0352 21.6432 8.91584 21.6754 8.7972 21.7079C8.79865 21.7076 8.79973 21.7072 8.80082 21.7069ZM21.2667 17.6029C21.2631 17.5868 21.2566 17.5726 21.2515 17.5568C21.2947 17.5407 21.3375 17.5243 21.3807 17.5082C21.4405 17.4855 21.487 17.4525 21.5301 17.4174C21.6825 17.3867 21.8233 17.289 21.8929 17.1075C21.9053 17.1324 21.9162 17.1565 21.9288 17.1814C21.9521 17.2264 21.9825 17.2568 22.0119 17.2886C21.7634 17.3944 21.5153 17.5008 21.2667 17.6029ZM15.7949 14.4812C17.5698 14.0831 19.2713 13.7446 20.6511 14.2913C15.2674 17.0991 9.7267 19.0315 3.90226 20.6797C3.26337 17.8013 14.0223 14.879 15.7949 14.4812ZM4.52592 22.412C4.54188 22.4094 4.55749 22.4069 4.57345 22.4043C4.60864 22.4457 4.64419 22.4877 4.68737 22.5393C4.83684 22.7172 5.0977 22.6682 5.25334 22.5393C5.37161 22.4288 5.49678 22.3315 5.62339 22.2371L5.639 22.2345C5.64843 22.3626 5.72571 22.4826 5.85668 22.5101C5.48299 22.6107 5.11076 22.7117 4.73598 22.8127C4.6656 22.6791 4.59666 22.5452 4.52592 22.412ZM19.2096 28.4627C17.2683 29.114 15.2714 29.6457 13.2535 29.9919C11.6198 30.2722 10.0532 30.5946 8.69452 29.3226C7.9174 28.5951 7.35687 27.4596 6.81593 26.5521C6.19046 25.5023 5.59655 24.4308 5.0186 23.3517C11.3089 22.4863 17.5157 20.2325 23.2984 17.6747C24.0574 19.407 24.7994 21.3336 25.0072 23.1267C25.4393 26.8548 21.9862 27.5314 19.2096 28.4627Z" fill="#6348AD"/>
<path d="M18.9801 24.2126C18.7492 23.5643 18.5182 22.9165 18.2839 22.2697C18.2128 22.0738 18.038 21.964 17.8295 22.0107C14.5487 22.7435 11.3286 23.6674 8.17251 24.8304C7.99396 24.8962 7.96551 25.089 8.03476 25.2176C8.01455 25.2812 8.00856 25.3496 8.04 25.4252C8.27806 25.9997 8.38661 26.246 8.66172 26.8036C8.73097 26.9439 8.94956 27.0413 9.09929 26.9826C12.1768 25.7786 15.3288 25.0123 18.6178 24.6912C18.8409 24.6687 19.0696 24.4641 18.9801 24.2126ZM8.76503 25.18C10.4576 24.6416 12.1577 24.1344 13.8776 23.691C14.7191 23.4741 15.6455 23.1218 16.5112 23.0515C17.6985 22.9548 17.7977 23.0943 18.1084 23.9911C16.5981 24.1517 15.102 24.3818 13.6205 24.733C12.2644 25.0545 9.5054 26.6739 8.76503 25.18Z" fill="#6348AD"/>
<path d="M22.9581 21.3653C22.718 20.9845 22.5049 20.4216 22.1229 20.142C21.7828 19.8929 21.4566 20.0245 21.0743 20.137C20.3772 20.3418 19.6866 20.5661 18.9912 20.7763C18.6554 20.8777 18.231 20.9157 18.0446 21.2195C17.9563 21.3637 17.9998 21.5761 18.1693 21.6562C18.193 21.6675 18.217 21.6785 18.2406 21.6898C18.3512 21.7419 18.4941 21.7397 18.6003 21.6803C18.8168 22.0925 19.0888 22.4688 19.3625 22.8606C19.4283 22.9548 19.5759 23.0318 19.701 22.9868C20.7571 22.6096 21.7965 22.1908 22.8386 21.7821C23.0047 21.7168 23.039 21.4934 22.9581 21.3653ZM18.8733 21.4209C19.1638 21.3216 19.6376 21.2324 19.7667 21.1922C20.1134 21.0841 20.4604 20.977 20.8075 20.8692C21.0976 20.7791 21.4659 20.5605 21.7643 20.6977C21.9112 20.7656 22.0856 21.0976 22.2226 21.3672C21.3761 21.7017 20.5283 22.0359 19.6924 22.3922C19.379 22.0978 19.12 21.7642 18.8733 21.4209Z" fill="#6348AD"/>
</svg>
