<svg width="52" height="32" viewBox="0 0 52 32" fill="none" xmlns="http://www.w3.org/2000/svg">
<path d="M8.30224 2.63128C9.94912 2.1929 11.6108 2.0341 13.3112 2.0001C13.5896 1.99451 13.8049 2.22392 13.8216 2.50053C14.0042 5.52658 14.2321 8.54891 14.4857 11.5692C14.5292 11.5506 14.5767 11.5361 14.6332 11.5337C15.4774 11.4981 16.323 11.4767 17.1692 11.4607C17.1226 10.6184 17.0774 9.77609 17.0411 8.93484C16.3255 8.88504 15.6066 8.83895 14.8947 8.78523C14.2702 8.7378 14.2279 7.75539 14.8745 7.77306C24.7975 8.04265 34.826 8.14866 44.7302 8.79331C45.0111 8.81185 45.076 9.14348 44.9092 9.28929C44.9067 9.29676 44.9076 9.30346 44.9047 9.31076C43.5836 12.593 42.0818 15.7971 40.6015 19.0064C39.7573 20.837 39.4991 22.8741 37.3564 23.0189C34.0177 23.2445 30.4172 22.5948 27.0573 22.5224C26.6112 22.5129 26.1655 22.5123 25.7198 22.5072C25.6911 22.5137 25.6607 22.5124 25.6311 22.5062C22.3552 22.4701 19.0837 22.5362 15.8076 22.6068C15.7333 22.6084 15.6695 22.5933 15.6114 22.571C15.6984 23.5593 15.7614 24.5474 15.7913 25.5342C23.1627 25.4708 30.5548 25.2726 37.9235 25.5206C38.3124 25.5336 38.3282 26.1199 37.9361 26.1407C37.7408 26.1511 37.545 26.1578 37.3498 26.1676C37.9456 26.5394 38.396 27.1687 38.5424 27.9072C38.8275 29.3491 37.7212 30.6309 36.3879 30.9342C34.9939 31.2514 33.574 30.3929 33.1685 28.9866C32.8549 27.8994 33.2384 26.9498 33.9538 26.3076C29.0695 26.4715 24.1761 26.4892 19.2884 26.5235C19.6353 26.8603 19.8947 27.2893 20 27.7504C20.304 29.0797 19.4014 30.5329 18.1101 30.8481C16.8513 31.1554 15.4475 30.3149 15.0755 29.0531C14.8199 28.1871 15.0837 27.2143 15.6682 26.5533C15.6346 26.5537 15.6008 26.5537 15.5676 26.5538C15.1642 26.5583 15.0076 26.156 15.1066 25.8562C14.303 22.2537 14.0914 18.473 13.7499 14.8042C13.3855 10.8893 13.0936 6.96864 12.8544 3.04411C11.3687 3.10236 9.91157 3.29014 8.43685 3.51633C7.94275 3.59132 7.82692 2.75791 8.30224 2.63128ZM33.9112 28.5392C34.0739 29.6744 35.2087 30.3868 36.2735 30.1235C38.5922 29.5499 38.012 26.3561 35.7793 26.2385C35.7699 26.2388 35.7608 26.2395 35.7515 26.2398C34.719 26.6842 33.7199 27.2061 33.9112 28.5392ZM15.8518 28.6988C16.0606 29.6104 17.0917 30.2439 17.9747 29.9896C18.8062 29.7504 19.3777 28.7919 19.208 27.9319C19.0557 27.1608 18.4915 26.7346 17.8294 26.5344C17.5949 26.5363 17.3603 26.5381 17.1259 26.5403C17.1112 26.5486 17.1016 26.5604 17.0858 26.5679C16.2917 26.9266 15.6364 27.7587 15.8518 28.6988ZM17.8019 8.98766C17.8766 9.80597 17.9403 10.6266 18.0009 11.4475C19.5716 11.4272 21.1442 11.4285 22.7166 11.4402C22.8383 10.7262 22.9655 10.0144 23.1046 9.30681C21.3297 9.21635 19.5632 9.10617 17.8019 8.98766ZM18.0697 12.4079C18.1447 13.5229 18.207 14.6395 18.2593 15.7569C19.5384 15.5758 20.8288 15.4091 22.1302 15.2648C22.2628 14.3041 22.4039 13.345 22.5573 12.3895C21.0611 12.4085 19.5647 12.4184 18.0697 12.4079ZM22.9982 15.1662C23.9751 15.065 24.9556 14.9735 25.9389 14.8967C26.0415 14.0372 26.1595 13.1826 26.2969 12.3369C25.3358 12.3503 24.3741 12.366 23.4123 12.3798C23.2854 13.3095 23.1453 14.2382 22.9982 15.1662ZM23.7777 9.34293C23.7056 10.0435 23.6222 10.7442 23.5331 11.4449C24.5047 11.4533 25.4757 11.4635 26.4466 11.4714C26.567 10.7982 26.6944 10.13 26.8375 9.47527C25.8164 9.43698 24.7963 9.39216 23.7777 9.34293ZM26.8793 14.8265C28.0497 14.7452 29.2226 14.6843 30.3941 14.6428C30.5114 13.8606 30.6317 13.0808 30.7641 12.3042C30.1255 12.3036 29.4881 12.3041 28.8519 12.3088C28.2753 12.3128 27.6982 12.319 27.1207 12.3261C27.05 13.1576 26.9689 13.9917 26.8793 14.8265ZM30.625 18.328C32.0401 18.3851 33.45 18.4715 34.8509 18.5858C35.0756 17.5835 35.2948 16.5794 35.5157 15.5756C34.0368 15.589 32.5577 15.602 31.079 15.6411C30.9383 16.5395 30.7847 17.4349 30.625 18.328ZM27.3232 9.49169C27.3235 9.49732 27.3258 9.50165 27.3254 9.50777C27.288 10.161 27.2408 10.8182 27.1898 11.477C27.7383 11.4805 28.2869 11.4834 28.8351 11.4841C29.5263 11.485 30.2197 11.4813 30.9132 11.4761C31.0221 10.8635 31.1266 10.2476 31.2443 9.64138C31.2475 9.62468 31.2568 9.61313 31.2625 9.59811C29.9501 9.57357 28.636 9.53839 27.3232 9.49169ZM31.2272 14.6189C32.7346 14.5778 34.2369 14.5786 35.7293 14.6113C35.9005 13.842 36.0748 13.0736 36.2553 12.3084C34.6864 12.3188 33.1161 12.3105 31.5502 12.3062C31.4515 13.0765 31.3412 13.8472 31.2272 14.6189ZM31.8489 9.60807C31.8582 9.63987 31.8641 9.67391 31.86 9.71314C31.798 10.2961 31.7214 10.8838 31.6503 11.4698C33.2526 11.4558 34.8592 11.4379 36.4646 11.4408C36.6134 10.831 36.7671 10.2228 36.9282 9.6175C35.2382 9.63517 33.5447 9.63472 31.8489 9.60807ZM43.0516 11.6524C43.4255 10.8931 43.8014 10.1349 44.192 9.38465C42.0189 9.50928 39.8291 9.57982 37.6313 9.61174C37.5658 10.2199 37.4797 10.8309 37.3805 11.4438C39.2742 11.4589 41.1642 11.5124 43.0418 11.6496C43.0456 11.6504 43.0481 11.6522 43.0516 11.6524ZM42.8396 12.0743C40.9804 12.2155 39.1084 12.2757 37.2328 12.2997C37.0892 13.0789 36.9243 13.8581 36.7387 14.6364C38.3333 14.6903 39.9145 14.7862 41.4694 14.939C41.9195 13.9812 42.3751 13.0251 42.8396 12.0743ZM40.3706 17.2901C40.6535 16.6823 40.9364 16.0744 41.2208 15.4666C39.6506 15.5275 38.0794 15.5485 36.5082 15.5643C36.2407 16.6033 35.9445 17.6347 35.6283 18.6535C36.9846 18.776 38.3322 18.9242 39.663 19.1124C39.9193 18.435 40.1489 17.7672 40.3706 17.2901ZM38.4318 21.4666C38.8535 21.0285 39.2037 20.2806 39.5129 19.5006C38.1286 19.5203 36.7424 19.5223 35.3559 19.5177C35.1013 20.3072 34.8383 21.0858 34.5703 21.8512C35.8377 22.0177 37.5357 22.3971 38.4318 21.4666ZM34.0632 21.7983C34.0732 21.799 34.0845 21.8003 34.0947 21.8013C34.284 21.0424 34.4642 20.2804 34.6395 19.5161C33.2324 19.5082 31.8247 19.4928 30.4163 19.4716C30.2832 20.1751 30.1453 20.8756 30.001 21.571C31.3571 21.6313 32.7116 21.7068 34.0632 21.7983ZM30.2369 15.6651C29.6341 15.6855 29.0313 15.7098 28.4287 15.7427C27.8732 15.7731 27.3201 15.8185 26.7661 15.8566C26.6743 16.6491 26.5731 17.4395 26.4671 18.2283C27.611 18.2363 28.7554 18.2594 29.8971 18.2985C30.0023 17.4207 30.1124 16.5425 30.2369 15.6651ZM29.5479 21.5558C29.6128 20.8605 29.6857 20.1619 29.7627 19.4624C28.6103 19.444 27.4579 19.4233 26.305 19.4024C26.2071 20.085 26.104 20.7628 25.9973 21.4382C27.1817 21.4635 28.3651 21.506 29.5479 21.5558ZM25.6288 18.2244C25.6803 17.4577 25.7416 16.6894 25.8208 15.9213C24.8243 15.9976 23.8293 16.0851 22.8346 16.1777C22.7206 16.8715 22.6034 17.5646 22.4837 18.2563C23.5302 18.2369 24.5785 18.2235 25.6288 18.2244ZM25.4912 21.427C25.5034 20.7531 25.5243 20.0739 25.5585 19.3887C24.4708 19.3688 23.3834 19.3535 22.2959 19.3369C22.1747 20.0282 22.0522 20.7184 21.9301 21.4069C23.1168 21.4015 24.304 21.405 25.4912 21.427ZM21.9965 16.2589C20.7628 16.3777 19.5298 16.503 18.2959 16.6292C18.3206 17.2144 18.348 17.7993 18.3672 18.3843C19.485 18.3385 20.6086 18.3005 21.7371 18.2738C21.8207 17.6026 21.9076 16.9306 21.9965 16.2589ZM21.3525 21.4101C21.4369 20.717 21.5214 20.0218 21.607 19.3259C20.5348 19.3108 19.4628 19.2989 18.3911 19.2913C18.4107 19.9787 18.4322 20.6668 18.4454 21.3531C18.4463 21.3958 18.4384 21.4322 18.4264 21.465C19.4009 21.4374 20.3768 21.4186 21.3525 21.4101ZM15.5298 21.657C15.6002 21.6089 15.6818 21.5717 15.7871 21.5666C16.4994 21.5309 17.213 21.5071 17.9266 21.4842C17.9086 21.4499 17.896 21.4106 17.892 21.3645C17.8321 20.6737 17.7757 19.9815 17.7189 19.2896C17.0061 19.2861 16.2932 19.2818 15.5807 19.284C15.4044 19.2847 15.2923 19.1853 15.242 19.059C15.3435 19.9248 15.4436 20.7905 15.5298 21.657ZM15.2182 18.8597C15.2354 18.6896 15.3465 18.5302 15.5651 18.518C16.2536 18.4797 16.9505 18.4498 17.6456 18.4188C17.5999 17.849 17.5588 17.2785 17.5157 16.7085C16.7504 16.7866 15.9856 16.8654 15.2193 16.9412C15.1217 16.951 15.042 16.9153 14.983 16.8556C15.0599 17.523 15.1396 18.191 15.2182 18.8597ZM14.7145 14.3105C14.7771 14.9928 14.8515 15.6765 14.9283 16.3609C14.9681 16.3014 15.0263 16.2545 15.1123 16.2398C15.8828 16.11 16.6699 15.9965 17.4534 15.8805C17.3691 14.7201 17.291 13.5599 17.2217 12.3993C16.3635 12.3882 15.5059 12.3718 14.6492 12.3407C14.6108 12.3394 14.5806 12.3264 14.5479 12.3169C14.6055 12.9816 14.6535 13.6462 14.7145 14.3105Z" fill="#206BB6"/>
<path d="M35.1506 27.242C35.5454 26.9259 36.7451 26.8872 36.9736 27.3204C37.0855 27.5322 36.8296 27.7473 36.4358 27.7622C36.4073 27.7633 36.3807 27.7614 36.3534 27.7602C36.2602 27.885 36.0644 27.9876 35.7981 27.9988C35.0989 28.0279 34.7924 27.5286 35.1506 27.242Z" fill="#206BB6"/>
<path d="M17.513 27.0191C17.6088 26.9738 17.7171 27.0068 17.7884 27.1433C17.9071 27.3704 17.9674 27.6356 17.9792 27.9146C18.0046 28.0654 18.0077 28.2327 17.9832 28.3873C17.9163 28.8097 17.6945 29.0734 17.4609 28.9819C17.218 28.8861 17.0438 28.4747 17.0048 28.0315C16.9576 27.4952 17.2676 27.1356 17.513 27.0191Z" fill="#206BB6"/>
</svg>
