<svg width="34" height="32" viewBox="0 0 34 32" fill="none" xmlns="http://www.w3.org/2000/svg">
<path d="M33.5194 29.2154C33.5178 29.2117 33.5149 29.2105 33.5133 29.2068C33.5104 29.1881 33.5096 29.1694 33.5042 29.1507C32.4981 25.7426 31.5363 22.2844 30.8913 18.7889C31.1358 18.6101 31.3178 18.3118 31.4611 17.8864C31.7976 16.8878 31.5511 15.3629 31.5647 14.3313C31.5836 12.9245 31.5979 11.5172 31.6127 10.1103C31.6415 7.40446 31.9689 4.52559 31.6879 1.8352C31.5721 0.725502 31.2302 0.162104 30.091 0.0387585C30.0339 0.0326523 29.9867 0.041608 29.9415 0.0530062C25.4502 -0.0813301 20.9327 0.0782457 16.4398 0.109998C14.492 0.123839 12.5446 0.137679 10.5968 0.15152C9.25629 0.160883 7.29085 -0.210374 6.01192 0.411237C3.79629 1.48878 4.58879 5.00106 4.56702 6.95667C4.52306 10.8479 3.97336 15.1308 4.64384 18.9684C4.68246 19.1882 5.04359 19.1825 5.08631 18.9684C5.68079 16.0138 5.38252 12.7637 5.42402 9.75697C5.44538 8.20111 5.46715 6.64566 5.48852 5.0898C5.49632 4.51989 5.30447 2.72223 5.59616 2.22681C6.19475 1.21033 8.12855 1.07885 9.13592 1.07437C16.1016 1.04302 23.1134 1.23557 30.0725 0.938405C30.1021 0.937184 30.1239 0.925379 30.1506 0.920087C31.425 1.2832 30.7487 8.51538 30.7356 9.64136C30.7216 10.8516 31.291 18.3769 29.7759 18.4469C29.7102 18.4498 29.6568 18.4762 29.6173 18.5153C21.5366 18.5015 13.326 18.3097 5.27447 18.9358C5.14465 18.946 5.06741 19.0254 5.03989 19.1182C4.99757 19.132 4.95813 19.1573 4.93061 19.2012C3.04159 22.2132 1.66816 25.6058 0.135744 28.8063C0.0835682 28.915 0.0798674 29.033 0.113145 29.1356C-1.21591 33.6021 9.56771 31.5329 11.3002 31.4494C18.7293 31.0908 26.1679 31.0932 33.5979 31.4181C33.7984 31.4266 34.0206 31.2284 33.9985 31.0212C33.8896 29.997 33.9311 30.159 33.5194 29.2154ZM5.28105 19.4451C13.5479 19.9201 21.9655 19.5297 30.2422 19.3584C30.2586 19.358 30.2697 19.3502 30.2853 19.3486C30.9759 22.5287 31.6575 25.6905 32.5223 28.8303C22.0538 28.7228 11.5849 28.6809 1.116 28.6129C2.57118 25.605 4.1911 22.5946 5.28105 19.4451ZM29.8034 30.4867C28.3803 30.4468 26.9567 30.4199 25.5328 30.4065C22.8434 30.3809 20.1537 30.4024 17.4652 30.4696C14.9345 30.5331 12.4049 30.6373 9.87789 30.7839C8.78835 30.847 0.535895 32.2164 0.632031 29.4055C11.3717 29.5048 22.1118 29.6343 32.8518 29.6925C33.224 31.0481 30.5791 30.5083 29.8034 30.4867Z" fill="#586A4E"/>
<path d="M29.9995 2.64933C30.0103 2.43112 29.852 2.32608 29.6846 2.32689C29.6267 2.20068 29.5109 2.10053 29.328 2.09605C22.017 1.92669 14.5981 1.90063 7.32299 2.70796C7.0818 2.73483 7.00682 2.99743 7.11345 3.14155C6.8706 7.62399 7.08263 12.1427 7.1522 16.6284C7.15511 16.8152 7.32382 17.0172 7.53126 16.9988C14.7427 16.3625 21.9241 16.3727 29.1443 16.8478C29.6337 16.88 29.6258 16.1467 29.1443 16.1064C23.4304 15.6272 17.6686 15.5918 11.9447 15.924C11.0149 15.9782 8.89632 16.5131 8.20234 15.9175C7.4138 15.2401 7.84743 12.8759 7.82952 11.8117C7.78037 8.9508 7.76662 6.08343 7.52918 3.2303C14.791 3.0646 22.0166 2.73117 29.2855 2.90908C28.8202 7.23396 28.7802 11.8235 29.5142 16.1125C29.5596 16.3784 29.9941 16.3116 29.9895 16.0498C29.9099 11.554 29.7812 7.14765 29.9995 2.64933Z" fill="#586A4E"/>
<path d="M20.9536 27.0874C20.6563 26.5233 20.3338 25.5545 19.7954 25.2299C19.0178 24.762 17.3295 25.1501 16.5055 25.1687C15.8683 25.1831 14.3325 24.9101 13.7724 25.379C13.2565 25.8112 13.1522 27.1157 13.0053 27.7522C12.9608 27.9458 13.2087 28.0795 13.2922 27.8919C13.2946 27.8868 13.2958 27.8822 13.2982 27.8771C13.3211 27.9217 13.3564 27.9574 13.4178 27.9597C15.75 28.0456 18.097 27.9783 20.4289 27.9049C20.607 27.8994 20.6997 27.7485 20.7149 27.5888C20.9099 27.567 21.0868 27.34 20.9536 27.0874ZM13.4178 27.6069C13.4125 27.6074 13.4105 27.6129 13.4053 27.6139C13.7463 26.7388 13.831 26.0851 14.8268 25.944C15.3708 25.8669 15.9586 25.9379 16.5055 25.9305C18.0353 25.9101 19.3191 25.7049 20.2985 27.209C18.0068 27.287 15.7014 27.3743 13.4178 27.6069Z" fill="#586A4E"/>
<path d="M29.7039 21.2482C29.5689 21.2496 29.4338 21.2518 29.2988 21.2531C29.2329 21.0129 29.1605 20.778 29.0791 20.5552C29.0189 20.391 28.8855 20.3234 28.7566 20.3256C28.7318 20.153 28.6207 19.9987 28.4117 20C21.3714 20.0427 14.2725 20.0294 7.2465 20.5405C7.16067 20.5467 7.10658 20.5996 7.08055 20.6655C6.98741 20.5307 6.79014 20.4916 6.67828 20.6833C6.01123 21.8261 5.59961 23.1864 5.25632 24.48C5.23395 24.5649 5.27136 24.6227 5.32505 24.6477C5.26485 24.6534 5.20466 24.6574 5.14446 24.6637C4.95573 24.6828 4.948 24.9897 5.14446 24.9915C13.1125 25.0622 21.0895 24.6681 29.0592 24.6414C29.2447 24.641 29.3435 24.5013 29.3659 24.3465C29.4155 24.3345 29.4611 24.3042 29.4749 24.242C29.6347 23.5071 29.601 22.6975 29.4558 21.9221C29.5384 21.9208 29.6213 21.9204 29.7043 21.919C30.098 21.9133 30.0992 21.2438 29.7039 21.2482ZM28.7533 21.9306C28.7822 22.0712 28.8131 22.2117 28.8396 22.3527C28.8082 22.3407 28.7757 22.3301 28.7363 22.3296C28.5154 22.3283 28.2937 22.3305 28.0725 22.3305C28.0281 22.1984 27.9789 22.0698 27.9333 21.9382C28.2067 21.9355 28.48 21.9342 28.7533 21.9306ZM27.3895 22.331C27.0946 22.3318 26.8002 22.331 26.5057 22.3318C26.491 22.2051 26.476 22.0783 26.4593 21.9515C26.7261 21.9493 26.9926 21.9462 27.2594 21.9444C27.2992 22.0734 27.3448 22.2019 27.3895 22.331ZM28.482 20.7878C28.5272 20.9457 28.563 21.1036 28.6016 21.2616C28.3006 21.2647 28.0001 21.2709 27.6991 21.2758C27.6568 21.1601 27.6193 21.0414 27.5754 20.9266C27.56 20.8861 27.5388 20.8537 27.516 20.8252C27.8146 20.8185 28.1135 20.8132 28.4117 20.8052C28.4381 20.8043 28.458 20.7932 28.482 20.7878ZM27.0849 20.835C27.0422 20.8972 27.0202 20.9818 27.041 21.0876C27.0536 21.153 27.0747 21.2193 27.0894 21.2847C26.8465 21.2887 26.6033 21.2923 26.3605 21.2963C26.3353 21.1468 26.306 21 26.2755 20.8528C26.5456 20.8474 26.8148 20.8407 27.0849 20.835ZM24.0998 22.3341C23.6235 22.3363 23.1489 22.3323 22.6726 22.3354C22.6685 22.2189 22.6632 22.1023 22.6543 21.9853C23.1041 21.9826 23.554 21.9764 24.0038 21.9733C24.0388 22.093 24.0709 22.2131 24.0998 22.3341ZM23.6528 20.9119C23.7028 21.0561 23.7516 21.1975 23.7992 21.3363C23.3929 21.3439 22.9862 21.3479 22.5798 21.3554C22.5575 21.2131 22.5306 21.0743 22.4997 20.9377C22.8845 20.9297 23.268 20.9199 23.6528 20.9119ZM22.1117 22.3394C21.3856 22.3447 20.6604 22.3474 19.934 22.3554C19.9315 22.2366 19.9267 22.1183 19.921 22C20.636 21.9973 21.3515 21.992 22.0665 21.9884C22.0828 22.105 22.0966 22.2229 22.1117 22.3394ZM19.2917 21.0071C19.3011 21.1441 19.3092 21.282 19.3206 21.4186C18.7825 21.4302 18.2448 21.4391 17.7067 21.4511C17.705 21.3123 17.6997 21.1735 17.6896 21.0356C18.224 21.0294 18.7577 21.0156 19.2917 21.0071ZM17.69 22.0098C18.2509 22.0084 18.8118 22.0044 19.3723 22.0027C19.3837 22.1223 19.3942 22.242 19.4048 22.3612C18.824 22.3688 18.2436 22.3692 17.6627 22.3794C17.677 22.2562 17.6818 22.133 17.69 22.0098ZM13.4058 21.0649C13.9171 21.0667 14.4283 21.0605 14.9396 21.0592C14.9282 21.2082 14.9241 21.3599 14.9197 21.5116C14.3893 21.5245 13.8589 21.5334 13.3289 21.5472C13.3582 21.3861 13.383 21.2255 13.4058 21.0649ZM13.2337 22.0209C13.7938 22.0218 14.3539 22.0173 14.914 22.0178C14.9152 22.1566 14.9144 22.2945 14.9189 22.4337C14.3242 22.4488 13.7287 22.4591 13.1345 22.4777C13.1699 22.3256 13.2012 22.1735 13.2337 22.0209ZM10.6574 21.0707C10.6591 21.0623 10.657 21.0552 10.6578 21.0472C11.4001 21.0605 12.1441 21.0574 12.8872 21.0618C12.8473 21.2273 12.8062 21.3923 12.7725 21.5609C12.0277 21.581 11.2826 21.593 10.5383 21.6148C10.5769 21.4333 10.6237 21.2509 10.6574 21.0707ZM10.4492 22.0218C11.196 22.0253 11.9427 22.0196 12.6891 22.0209C12.6619 22.1788 12.6342 22.3363 12.609 22.4947C11.8471 22.52 11.0845 22.5387 10.3235 22.5712C10.3703 22.3883 10.4069 22.206 10.4492 22.0218ZM9.07683 21.0147C9.45551 21.0254 9.83459 21.0298 10.2133 21.0378C10.1592 21.2309 10.114 21.431 10.0644 21.6281C9.69752 21.6392 9.33023 21.6477 8.96335 21.6593C9.03331 21.5356 9.09879 21.411 9.17323 21.2874C9.2379 21.1806 9.16835 21.0574 9.07683 21.0147ZM9.96557 22.02C9.92042 22.2122 9.87649 22.4003 9.83541 22.5939C9.3766 22.6143 8.91739 22.633 8.4594 22.6566C8.55377 22.4404 8.65219 22.226 8.76201 22.0156C9.16306 22.0182 9.56452 22.0178 9.96557 22.02ZM7.10577 20.9564C7.1139 20.9373 7.11431 20.919 7.11878 20.8999C7.14929 20.9319 7.19037 20.9555 7.24609 20.9577C7.81675 20.9804 8.38863 20.9947 8.95969 21.0111C8.93895 21.0205 8.91902 21.0351 8.90153 21.0587C8.76079 21.2536 8.63959 21.4622 8.52245 21.6726C7.93674 21.6913 7.35062 21.7064 6.76451 21.7269C6.88124 21.4715 6.99635 21.2157 7.10577 20.9564ZM5.46456 24.6352C5.48856 24.6183 5.51012 24.5952 5.52354 24.5605C5.853 23.6806 6.25364 22.8456 6.64167 22.0018C7.2107 22.0076 7.78014 22.008 8.34917 22.0124C8.24423 22.2295 8.14458 22.4493 8.0612 22.6779C7.57433 22.7037 7.08706 22.7269 6.601 22.7562C6.4322 22.7664 6.43058 23.0378 6.601 23.0445C7.04435 23.0618 7.48892 23.0729 7.93308 23.0872C7.80821 23.4969 7.70327 23.9146 7.63778 24.3407C7.63128 24.3821 7.64307 24.4163 7.65934 24.4462C6.9272 24.5044 6.19466 24.5631 5.46456 24.6352ZM16.9176 23.9639C16.9155 23.9737 16.9172 23.9817 16.9164 23.9911C13.9061 24.0623 10.8978 24.1899 7.90257 24.4248C7.90298 24.423 7.9046 24.423 7.90501 24.4212C7.99327 23.9537 8.12831 23.52 8.28572 23.0983C8.7673 23.113 9.24929 23.1223 9.73128 23.1339C9.69061 23.3483 9.6422 23.564 9.60722 23.7767C9.56614 24.0267 9.88177 24.1272 9.95783 23.8825C10.0323 23.6423 10.0953 23.3914 10.1636 23.1446C10.9426 23.1615 11.7231 23.1641 12.5028 23.1735C12.4711 23.3803 12.4394 23.5867 12.4048 23.79C12.358 24.0658 12.7318 24.1877 12.7949 23.9075C12.849 23.6664 12.9075 23.4235 12.9669 23.1793C13.6279 23.1859 14.2896 23.1841 14.951 23.1864C14.9624 23.4075 14.9742 23.6276 14.9843 23.8438C14.9961 24.0965 15.3313 24.0965 15.3431 23.8438C15.3533 23.6281 15.3651 23.4088 15.3764 23.1882C15.9369 23.1895 16.4974 23.185 17.0579 23.1833C17.0217 23.4417 16.9753 23.7015 16.9176 23.9639ZM17.1413 22.3888C16.5641 22.3995 15.987 22.4075 15.4098 22.4213C15.4139 22.286 15.413 22.1517 15.4147 22.0165C15.9951 22.0165 16.5759 22.012 17.1563 22.0111C17.1515 22.137 17.1498 22.2638 17.1413 22.3888ZM15.4082 21.5004C15.4037 21.3519 15.3996 21.2033 15.3886 21.0578C15.9796 21.0552 16.571 21.0467 17.1624 21.0409C17.1665 21.1824 17.1685 21.3234 17.1689 21.4631C16.582 21.476 15.9951 21.4862 15.4082 21.5004ZM17.3166 23.9817C17.4008 23.7206 17.472 23.4533 17.5309 23.181C18.176 23.1784 18.8203 23.1655 19.4654 23.1597C19.48 23.4199 19.4861 23.6824 19.4837 23.9466C18.7613 23.9568 18.039 23.9662 17.3166 23.9817ZM19.8152 20.9978C20.5181 20.9858 21.2181 20.9644 21.9205 20.9506C21.9396 21.0894 21.9575 21.2291 21.9774 21.3665C21.2762 21.3803 20.575 21.3923 19.8742 21.407C19.8579 21.2691 19.8388 21.1326 19.8152 20.9978ZM19.8941 23.9399C19.9079 23.6833 19.921 23.4208 19.9287 23.1543C20.6852 23.1468 21.4409 23.133 22.1971 23.1223C22.2133 23.3029 22.2308 23.4826 22.2398 23.6664C22.2532 23.9484 22.6095 23.9399 22.6351 23.6664C22.6518 23.4902 22.6624 23.3043 22.6701 23.1156C23.1903 23.1076 23.7085 23.0925 24.2283 23.0832C24.2527 23.3274 24.2617 23.5809 24.2471 23.8527C24.2458 23.8754 24.2507 23.895 24.256 23.9146C22.8027 23.9159 21.3486 23.9226 19.8941 23.9399ZM24.2865 20.8977C24.7172 20.8888 25.1468 20.8777 25.5775 20.8688C25.5991 21.0151 25.6198 21.161 25.6466 21.3074C25.2513 21.3141 24.8559 21.3189 24.4602 21.3261C24.4114 21.1779 24.354 21.0343 24.2865 20.8977ZM25.7788 21.9573C25.8073 22.0832 25.8386 22.2073 25.8687 22.3323C25.4673 22.3336 25.0662 22.3318 24.6648 22.3336C24.6526 22.2104 24.6355 22.089 24.6152 21.968C25.0032 21.9649 25.3912 21.9604 25.7788 21.9573ZM24.6351 23.9106C24.6705 23.6446 24.6924 23.3621 24.6973 23.0743C25.1476 23.0658 25.5966 23.0547 26.0469 23.0462C26.0749 23.1548 26.103 23.2651 26.1311 23.3728C26.2039 23.6521 26.6464 23.6116 26.6131 23.3016C26.6037 23.214 26.5939 23.1241 26.5846 23.0356C26.9405 23.0289 27.296 23.0204 27.6519 23.0138C27.7845 23.3283 27.924 23.6348 28.0716 23.9239C26.9267 23.919 25.7817 23.9146 24.6343 23.9146C24.6343 23.9123 24.6351 23.9119 24.6351 23.9106ZM29.0588 23.9257C28.9026 23.9248 28.746 23.9252 28.5898 23.9244C28.5935 23.8892 28.5906 23.8518 28.5764 23.8114C28.4816 23.5436 28.3918 23.2709 28.3006 22.9995C28.4458 22.996 28.5915 22.9946 28.7363 22.9906C28.8245 22.988 28.8904 22.9502 28.9388 22.8963C29.0015 23.2438 29.0633 23.5916 29.132 23.9421C29.108 23.9364 29.0869 23.9257 29.0588 23.9257Z" fill="#586A4E"/>
</svg>
