<svg width="19" height="19" viewBox="0 0 19 19" fill="none" xmlns="http://www.w3.org/2000/svg">
<path d="M1 1H2.66667L4.88333 11.35C4.96465 11.729 5.17556 12.0679 5.47976 12.3082C5.78396 12.5485 6.16242 12.6753 6.55 12.6667H14.7C15.0793 12.6661 15.4471 12.5361 15.7425 12.2982C16.038 12.0603 16.2434 11.7288 16.325 11.3583L17.7 5.16667H3.55833M6.79167 16.7917C6.79167 17.2519 6.41857 17.625 5.95833 17.625C5.4981 17.625 5.125 17.2519 5.125 16.7917C5.125 16.3314 5.4981 15.9583 5.95833 15.9583C6.41857 15.9583 6.79167 16.3314 6.79167 16.7917ZM15.9583 16.7917C15.9583 17.2519 15.5852 17.625 15.125 17.625C14.6648 17.625 14.2917 17.2519 14.2917 16.7917C14.2917 16.3314 14.6648 15.9583 15.125 15.9583C15.5852 15.9583 15.9583 16.3314 15.9583 16.7917Z" stroke="white" stroke-width="2" stroke-linecap="round" stroke-linejoin="round"/>
</svg>
