<svg width="469" height="279" viewBox="0 0 469 279" fill="none" xmlns="http://www.w3.org/2000/svg">
<path d="M325.843 238.832C325.834 238.812 325.818 238.806 325.809 238.786C325.793 238.686 325.788 238.585 325.758 238.485C320.209 220.224 314.893 201.692 311.261 182.94C312.552 181.966 313.504 180.352 314.243 178.058C315.977 172.672 314.579 164.49 314.592 158.945C314.613 151.382 314.61 143.818 314.609 136.255C314.608 121.711 316.188 106.219 314.539 91.7748C313.859 85.817 312.008 82.8082 305.936 82.2094C305.632 82.1798 305.381 82.2306 305.141 82.2944C281.226 81.8252 257.187 82.9373 233.272 83.3609C222.904 83.5449 212.539 83.729 202.171 83.913C195.035 84.0388 184.552 82.1541 177.779 85.5671C166.046 91.4833 170.464 110.316 170.459 120.828C170.446 141.745 167.763 164.795 171.55 185.383C171.768 186.562 173.69 186.512 173.905 185.358C176.902 169.445 175.13 151.993 175.18 135.831C175.205 127.467 175.233 119.106 175.258 110.742C175.268 107.679 174.144 98.0278 175.669 95.3487C178.798 89.8517 189.084 89.0361 194.447 88.9553C231.525 88.3947 268.861 89.0348 305.889 87.0457C306.047 87.0375 306.162 86.9728 306.304 86.9429C313.108 88.8228 309.919 127.732 309.913 133.784C309.907 140.29 313.365 180.704 305.304 181.165C304.954 181.184 304.671 181.33 304.464 181.542C261.447 181.922 217.73 181.354 174.905 185.173C174.214 185.235 173.808 185.666 173.666 186.166C173.442 186.243 173.233 186.381 173.089 186.619C163.205 202.913 156.086 221.225 148.11 238.513C147.839 239.1 147.826 239.735 148.009 240.284C141.187 264.365 198.474 252.636 207.691 252.09C247.218 249.745 286.816 249.339 326.385 250.666C327.453 250.701 328.625 249.623 328.495 248.511C327.857 243.012 328.088 243.88 325.843 238.832ZM174.969 187.909C219.002 189.997 263.789 187.425 307.838 186.038C307.925 186.035 307.984 185.993 308.067 185.983C311.924 203.036 315.731 219.991 320.513 236.818C264.781 236.83 209.05 237.194 153.317 237.418C160.893 221.17 169.345 204.899 174.969 187.909ZM306.134 245.874C298.556 245.74 290.976 245.676 283.395 245.684C269.078 245.697 254.761 245.965 240.453 246.477C226.985 246.961 213.526 247.663 200.082 248.593C194.286 248.994 150.434 256.819 150.786 241.705C207.961 241.635 265.141 241.726 322.316 241.434C324.374 248.699 310.264 245.946 306.134 245.874Z" fill="#206BB6"/>
<path d="M302.78 97.9218C302.825 96.7429 301.986 96.1845 301.105 96.1982C300.794 95.52 300.179 94.9856 299.216 94.9716C260.747 94.4639 221.718 94.736 183.492 99.5001C182.225 99.6586 181.846 101.081 182.415 101.853C181.393 126.07 182.766 150.458 183.388 174.676C183.414 175.684 184.313 176.765 185.403 176.655C223.303 172.818 261.082 172.473 299.091 174.637C301.668 174.783 301.584 170.824 299.049 170.634C268.963 168.364 238.651 168.493 208.559 170.606C203.671 170.95 192.556 173.956 188.871 170.779C184.685 167.165 186.831 154.375 186.676 148.629C186.254 133.184 186.019 117.702 184.607 102.309C222.799 101.01 260.791 98.8078 299.039 99.3641C296.838 122.743 296.889 147.527 300.995 170.646C301.249 172.079 303.531 171.694 303.492 170.281C302.817 146.009 301.889 122.223 302.78 97.9218Z" fill="#206BB6"/>
<path d="M258.598 228.973C256.936 226.358 255.114 221.856 252.137 220.373C247.837 218.235 238.571 220.144 234.04 220.278C230.537 220.383 222.077 219.198 219.02 221.419C216.203 223.466 215.694 229.559 214.918 232.538C214.682 233.444 216.053 234.053 216.502 233.173C216.515 233.149 216.522 233.128 216.535 233.104C216.663 233.31 216.859 233.475 217.196 233.482C230.027 233.747 242.932 233.297 255.753 232.819C256.732 232.782 257.234 232.073 257.31 231.327C258.381 231.214 259.343 230.144 258.598 228.973ZM217.179 231.836C217.15 231.838 217.139 231.864 217.111 231.869C218.943 227.766 219.377 224.71 224.846 223.994C227.834 223.603 231.071 223.9 234.078 223.833C242.49 223.649 249.541 222.617 255.001 229.579C242.401 230.076 229.727 230.618 217.179 231.836Z" fill="#206BB6"/>
<path d="M305.224 196.536C304.501 196.55 303.777 196.569 303.053 196.583C302.687 195.386 302.287 194.216 301.839 193.106C301.508 192.289 300.789 191.958 300.098 191.977C299.956 191.115 299.353 190.35 298.232 190.368C260.501 190.981 222.453 191.316 184.822 194.27C184.362 194.306 184.075 194.574 183.939 194.905C183.433 194.236 182.373 194.051 181.784 195.016C178.269 200.768 176.135 207.592 174.363 214.079C174.248 214.505 174.451 214.792 174.74 214.914C174.418 214.946 174.096 214.97 173.773 215.004C172.763 215.111 172.738 216.646 173.791 216.643C216.501 216.545 259.234 214.123 301.948 213.537C302.942 213.525 303.465 212.821 303.576 212.045C303.842 211.982 304.084 211.829 304.155 211.516C304.973 207.833 304.749 203.787 303.93 199.919C304.373 199.908 304.817 199.901 305.262 199.889C307.372 199.838 307.343 196.491 305.224 196.536ZM300.166 200.001C300.328 200.702 300.501 201.403 300.65 202.107C300.482 202.049 300.307 201.997 300.095 201.997C298.911 202.003 297.723 202.027 296.537 202.039C296.293 201.381 296.022 200.741 295.771 200.085C297.236 200.057 298.701 200.034 300.166 200.001ZM292.877 202.08C291.297 202.101 289.718 202.114 288.14 202.135C288.055 201.502 287.968 200.869 287.871 200.236C289.301 200.21 290.729 200.179 292.159 200.155C292.38 200.798 292.631 201.438 292.877 202.08ZM298.651 194.303C298.902 195.09 299.102 195.877 299.317 196.665C297.704 196.697 296.093 196.746 294.48 196.787C294.248 196.211 294.041 195.62 293.799 195.048C293.714 194.847 293.599 194.686 293.476 194.545C295.075 194.494 296.677 194.451 298.275 194.394C298.417 194.388 298.523 194.331 298.651 194.303ZM291.165 194.618C290.94 194.932 290.827 195.356 290.943 195.884C291.014 196.21 291.131 196.54 291.213 196.866C289.912 196.9 288.608 196.932 287.307 196.965C287.164 196.219 286.999 195.487 286.828 194.753C288.275 194.711 289.718 194.662 291.165 194.618ZM275.245 202.282C272.693 202.32 270.148 202.327 267.596 202.37C267.568 201.787 267.533 201.205 267.479 200.621C269.89 200.582 272.301 200.525 274.712 200.484C274.906 201.08 275.084 201.679 275.245 202.282ZM272.775 195.197C273.05 195.915 273.319 196.619 273.582 197.311C271.404 197.372 269.225 197.415 267.047 197.475C266.92 196.765 266.768 196.073 266.596 195.392C268.657 195.33 270.713 195.259 272.775 195.197ZM264.59 202.422C260.699 202.489 256.812 202.544 252.919 202.625C252.9 202.031 252.867 201.44 252.83 200.849C256.663 200.795 260.497 200.728 264.329 200.669C264.423 201.251 264.503 201.84 264.59 202.422ZM249.405 195.92C249.463 196.605 249.514 197.294 249.582 197.976C246.698 198.064 243.817 198.139 240.933 198.23C240.917 197.536 240.882 196.842 240.82 196.154C243.684 196.092 246.544 195.993 249.405 195.92ZM240.874 201.024C243.88 200.986 246.886 200.934 249.89 200.893C249.957 201.491 250.02 202.089 250.083 202.684C246.97 202.755 243.86 202.79 240.747 202.874C240.817 202.257 240.836 201.641 240.874 201.024ZM217.862 196.543C220.602 196.523 223.342 196.463 226.082 196.427C226.029 197.173 226.015 197.932 225.999 198.69C223.157 198.785 220.315 198.859 217.475 198.958C217.624 198.152 217.748 197.347 217.862 196.543ZM216.99 201.332C219.992 201.305 222.993 201.251 225.995 201.222C226.009 201.916 226.012 202.605 226.044 203.301C222.857 203.41 219.666 203.495 216.482 203.622C216.664 202.86 216.824 202.097 216.99 201.332ZM203.132 196.728C203.14 196.686 203.129 196.65 203.133 196.61C207.112 196.635 211.099 196.577 215.082 196.557C214.877 197.387 214.666 198.214 214.493 199.059C210.503 199.201 206.51 199.304 202.522 199.455C202.719 198.545 202.96 197.631 203.132 196.728ZM202.066 201.495C206.068 201.47 210.071 201.399 214.071 201.363C213.933 202.154 213.793 202.943 213.666 203.737C209.585 203.906 205.498 204.043 201.421 204.249C201.662 203.332 201.849 202.418 202.066 201.495ZM194.657 196.537C196.687 196.569 198.719 196.57 200.749 196.589C200.47 197.557 200.238 198.56 199.983 199.548C198.017 199.625 196.049 199.688 194.083 199.766C194.451 199.144 194.796 198.518 195.188 197.895C195.529 197.358 195.15 196.746 194.657 196.537ZM199.474 201.513C199.242 202.477 199.016 203.42 198.806 204.39C196.348 204.518 193.888 204.637 191.435 204.781C191.929 203.695 192.445 202.617 193.023 201.559C195.172 201.55 197.324 201.525 199.474 201.513ZM184.09 196.358C184.132 196.262 184.133 196.17 184.156 196.075C184.322 196.233 184.543 196.348 184.842 196.356C187.902 196.437 190.967 196.476 194.029 196.526C193.918 196.574 193.812 196.649 193.72 196.767C192.976 197.75 192.337 198.8 191.72 199.858C188.582 199.985 185.442 200.094 182.301 200.229C182.914 198.946 183.517 197.661 184.09 196.358ZM175.488 214.844C175.615 214.758 175.73 214.641 175.8 214.467C177.519 210.049 179.622 205.852 181.657 201.611C184.708 201.607 187.76 201.577 190.81 201.567C190.259 202.658 189.736 203.763 189.301 204.911C186.693 205.067 184.083 205.211 181.479 205.385C180.575 205.446 180.581 206.802 181.495 206.826C183.872 206.888 186.255 206.918 188.636 206.964C187.989 209.019 187.448 211.114 187.12 213.248C187.087 213.455 187.152 213.626 187.241 213.774C183.32 214.107 179.397 214.442 175.488 214.844ZM236.837 210.838C236.826 210.887 236.836 210.927 236.832 210.974C220.701 211.501 204.585 212.309 188.543 213.654C188.546 213.645 188.554 213.645 188.556 213.636C189.005 211.293 189.706 209.117 190.527 207C193.109 207.046 195.693 207.065 198.277 207.096C198.07 208.17 197.822 209.251 197.646 210.316C197.439 211.569 199.136 212.053 199.53 210.826C199.917 209.621 200.241 208.363 200.595 207.124C204.77 207.165 208.954 207.134 213.133 207.136C212.974 208.172 212.815 209.206 212.64 210.225C212.404 211.606 214.414 212.194 214.737 210.79C215.015 209.581 215.316 208.363 215.621 207.139C219.164 207.135 222.711 207.089 226.255 207.062C226.328 208.167 226.403 209.267 226.469 210.347C226.545 211.61 228.342 211.591 228.392 210.327C228.435 209.248 228.486 208.151 228.536 207.047C231.54 207.022 234.544 206.968 237.548 206.927C237.367 208.221 237.133 209.523 236.837 210.838ZM237.953 202.95C234.86 203.036 231.767 203.109 228.674 203.211C228.689 202.534 228.677 201.863 228.679 201.187C231.79 201.154 234.903 201.099 238.013 201.061C237.994 201.691 237.992 202.325 237.953 202.95ZM228.617 198.607C228.585 197.864 228.555 197.122 228.489 196.395C231.656 196.348 234.825 196.273 237.995 196.21C238.024 196.917 238.043 197.622 238.052 198.32C234.907 198.418 231.762 198.503 228.617 198.607ZM238.976 210.905C239.414 209.594 239.781 208.254 240.083 206.889C243.54 206.839 246.993 206.738 250.45 206.673C250.542 207.973 250.589 209.285 250.59 210.606C246.718 210.698 242.847 210.786 238.976 210.905ZM252.211 195.844C255.977 195.744 259.728 195.598 263.492 195.489C263.602 196.182 263.705 196.879 263.819 197.565C260.061 197.674 256.304 197.774 252.548 197.887C252.454 197.198 252.344 196.517 252.211 195.844ZM252.789 210.549C252.849 209.265 252.905 207.952 252.933 206.62C256.987 206.539 261.037 206.427 265.089 206.331C265.186 207.233 265.289 208.131 265.347 209.049C265.433 210.458 267.343 210.396 267.466 209.026C267.546 208.145 267.592 207.214 267.624 206.271C270.412 206.201 273.188 206.096 275.974 206.02C276.118 207.24 276.179 208.507 276.115 209.867C276.109 209.98 276.137 210.078 276.166 210.175C268.377 210.265 260.584 210.38 252.789 210.549ZM276.17 195.09C278.478 195.021 280.78 194.941 283.088 194.872C283.211 195.603 283.33 196.331 283.482 197.061C281.363 197.117 279.244 197.164 277.124 197.222C276.854 196.484 276.539 195.769 276.17 195.09ZM284.225 200.303C284.384 200.931 284.558 201.55 284.726 202.173C282.575 202.202 280.425 202.216 278.273 202.248C278.202 201.633 278.104 201.026 277.988 200.423C280.068 200.385 282.147 200.341 284.225 200.303ZM278.198 210.134C278.373 208.802 278.476 207.388 278.487 205.949C280.9 205.881 283.306 205.8 285.719 205.733C285.875 206.274 286.031 206.824 286.187 207.36C286.592 208.753 288.962 208.525 288.767 206.977C288.712 206.539 288.655 206.091 288.6 205.649C290.507 205.595 292.412 205.533 294.319 205.479C295.047 207.044 295.811 208.569 296.617 210.006C290.48 210.046 284.343 210.089 278.193 210.154C278.193 210.143 278.198 210.141 278.198 210.134ZM301.908 209.959C301.071 209.963 300.232 209.974 299.395 209.979C299.412 209.803 299.395 209.616 299.317 209.415C298.795 208.081 298.298 206.723 297.796 205.371C298.574 205.345 299.354 205.33 300.13 205.302C300.603 205.284 300.954 205.091 301.211 204.819C301.565 206.553 301.914 208.288 302.301 210.037C302.172 210.009 302.059 209.957 301.908 209.959Z" fill="#206BB6"/>
<path d="M82.3993 93.1645C78.7912 93.1041 75.2865 93.6201 71.76 94.4099C71.1827 94.5391 70.8474 95.1149 70.9445 95.6863C72.0067 101.938 72.9738 108.205 73.8865 114.481C73.788 114.465 73.6831 114.46 73.5653 114.483C71.8058 114.837 70.0502 115.221 68.2959 115.616C67.9915 113.878 67.6841 112.14 67.3591 110.41C68.8125 109.947 70.2745 109.49 71.7184 109.021C72.9849 108.609 72.605 106.588 71.2787 106.95C50.9244 112.512 30.2743 117.793 10.1373 124.109C9.56633 124.288 9.58988 124.996 10.0038 125.209C10.0123 125.222 10.0136 125.237 10.0232 125.25C14.3111 131.264 18.9347 137.027 23.5166 142.812C26.1298 146.112 27.6316 150.127 32.1232 149.34C39.122 148.113 46.2451 144.971 53.146 143.127C54.0623 142.882 54.9821 142.656 55.8996 142.42C55.962 142.419 56.024 142.401 56.0823 142.373C62.827 140.645 69.6112 139.127 76.4073 137.616C76.5613 137.582 76.686 137.519 76.7951 137.444C77.0856 139.5 77.4254 141.543 77.8332 143.566C62.5872 147.161 47.2347 150.492 32.1423 154.719C31.3459 154.942 31.5921 156.143 32.4114 155.987C32.8195 155.91 33.2267 155.824 33.6344 155.746C32.5814 156.803 31.951 158.312 32.0001 159.889C32.0972 162.968 34.9904 165.018 37.8867 164.962C40.9149 164.904 43.4376 162.439 43.6057 159.371C43.736 157 42.4929 155.261 40.7107 154.315C50.8706 152.182 60.9798 149.746 71.0849 147.347C70.529 148.207 70.1978 149.212 70.1997 150.204C70.2043 153.062 72.7585 155.565 75.5739 155.554C78.3184 155.544 80.8163 153.124 80.9842 150.368C81.0999 148.476 80.0926 146.629 78.5718 145.579C78.6413 145.562 78.7111 145.545 78.7797 145.529C79.6146 145.334 79.7465 144.436 79.3995 143.876C79.3451 136.137 77.9838 128.335 76.9438 120.694C75.8342 112.541 74.5722 104.413 73.1994 96.3042C76.2937 95.6724 79.3907 95.3186 82.5422 95.0341C83.5982 94.937 83.4407 93.1821 82.3993 93.1645ZM41.86 158.836C42.0641 161.229 40.0606 163.253 37.7375 163.255C32.6784 163.258 32.3571 156.464 36.9099 155.097C36.9292 155.093 36.9483 155.089 36.9677 155.085C39.3105 155.468 41.6209 156.026 41.86 158.836ZM79.2132 150.038C79.2158 152 77.3886 153.81 75.4451 153.738C73.6151 153.671 71.9794 152.009 71.9207 150.173C71.8684 148.526 72.8304 147.374 74.1017 146.632C74.5868 146.517 75.0719 146.402 75.5567 146.289C75.591 146.298 75.6166 146.317 75.6526 146.324C77.4624 146.653 79.2107 148.016 79.2132 150.038ZM65.8137 110.902C66.0488 112.605 66.3074 114.308 66.5727 116.009C63.3209 116.761 60.0756 117.558 56.8354 118.376C56.2447 116.984 55.6435 115.6 55.0199 114.23C58.6406 113.149 62.2345 112.032 65.8137 110.902ZM66.8875 117.999C67.2629 120.306 67.6653 122.61 68.0888 124.911C65.3626 125.189 62.6196 125.501 59.8647 125.865C59.1342 123.977 58.3868 122.096 57.6157 120.228C60.7132 119.511 63.8066 118.775 66.8875 117.999ZM58.0261 126.103C55.9617 126.39 53.8941 126.699 51.8279 127.04C51.2075 125.342 50.5575 123.662 49.8715 122.01C51.8619 121.552 53.8543 121.098 55.8463 120.64C56.5505 122.469 57.2811 124.288 58.0261 126.103ZM53.6478 114.643C54.1297 116.033 54.6351 117.417 55.1523 118.798C53.1506 119.306 51.1513 119.818 49.1509 120.324C48.5823 119.014 48.0015 117.719 47.3947 116.458C49.4844 115.865 51.5686 115.258 53.6478 114.643ZM49.8535 127.372C47.3988 127.798 44.9488 128.266 42.511 128.773C41.8968 127.24 41.2776 125.714 40.6351 124.2C41.953 123.876 43.2689 123.555 44.5843 123.243C45.7764 122.96 46.9706 122.682 48.166 122.404C48.7075 124.061 49.2715 125.718 49.8535 127.372ZM43.787 136.391C40.8932 137.222 38.024 138.11 35.1866 139.051C34.2462 137.124 33.3162 135.191 32.3828 133.259C35.4419 132.54 38.5012 131.819 41.5721 131.151C42.2897 132.909 43.0325 134.654 43.787 136.391ZM46.3999 116.737C46.402 116.749 46.3994 116.759 46.4031 116.771C46.791 118.082 47.201 119.396 47.6195 120.711C46.489 120.995 45.358 121.278 44.2268 121.556C42.8006 121.907 41.3674 122.25 39.9334 122.59C39.4173 121.398 38.9088 120.197 38.3775 119.022C38.363 118.99 38.3382 118.971 38.3193 118.944C41.0168 118.231 43.7124 117.495 46.3999 116.737ZM40.7801 129.146C37.6489 129.823 34.5485 130.584 31.4834 131.404C30.764 129.925 30.0389 128.449 29.3024 126.982C32.5458 126.211 35.7832 125.401 39.0133 124.601C39.5834 126.119 40.1777 127.632 40.7801 129.146ZM37.1136 119.26C37.1096 119.33 37.1136 119.402 37.1407 119.48C37.546 120.635 37.9837 121.792 38.409 122.949C35.0949 123.73 31.7702 124.505 28.4577 125.322C27.8606 124.156 27.2542 122.996 26.6337 121.845C30.1306 121.027 33.6259 120.171 37.1136 119.26ZM14.9619 129.08C13.829 127.724 12.6924 126.37 11.5294 125.04C16.0743 124.196 20.628 123.234 25.1796 122.189C25.6041 123.393 26.0724 124.594 26.5686 125.791C22.6669 126.778 18.7911 127.842 14.9809 129.07C14.9733 129.073 14.9689 129.078 14.9619 129.08ZM15.6 129.832C19.5048 129.18 23.3977 128.357 27.2805 127.459C27.9474 128.972 28.6585 130.475 29.4117 131.965C26.1459 132.881 22.9277 133.874 19.7908 134.971C18.4061 133.249 17.0111 131.533 15.6 129.832ZM23.1771 139.201C22.304 138.107 21.4309 137.013 20.5549 135.919C23.8249 135.25 27.0781 134.499 30.3288 133.738C31.3751 135.717 32.4771 137.667 33.6141 139.581C30.873 140.516 28.1616 141.498 25.5043 142.553C24.653 141.304 23.8615 140.061 23.1771 139.201ZM29.1652 146.723C28.0864 146.045 27.0079 144.699 25.9987 143.268C28.8656 142.609 31.7277 141.912 34.5874 141.203C35.4885 142.681 36.4016 144.133 37.3189 145.556C34.782 146.535 31.4574 148.165 29.1652 146.723ZM38.3403 145.192C38.3201 145.198 38.2974 145.207 38.2769 145.214C37.5252 143.765 36.7909 142.305 36.0654 140.838C38.9662 140.111 41.8645 139.368 44.7617 138.614C45.3709 139.978 45.9886 141.334 46.6174 142.677C43.8467 143.485 41.0869 144.323 38.3403 145.192ZM43.3217 130.775C44.5757 130.512 45.8315 130.257 47.0909 130.019C48.252 129.801 49.4154 129.614 50.577 129.411C51.1434 130.978 51.7281 132.536 52.322 134.088C49.9648 134.682 47.6135 135.307 45.2755 135.964C44.6409 134.23 43.9959 132.498 43.3217 130.775ZM47.5453 142.417C47.0806 141.035 46.5981 139.65 46.1064 138.265C48.4763 137.645 50.8452 137.021 53.2152 136.396C53.7417 137.736 54.277 139.064 54.8183 140.384C52.3856 141.034 49.9631 141.719 47.5453 142.417ZM54.0506 133.657C53.5797 132.122 53.0877 130.589 52.559 129.066C54.6521 128.718 56.7477 128.393 58.8448 128.079C59.4101 129.434 59.9818 130.785 60.5577 132.133C58.3885 132.622 56.2181 133.124 54.0506 133.657ZM55.8579 140.106C55.512 138.74 55.146 137.368 54.7495 135.991C56.985 135.401 59.2225 134.821 61.4592 134.237C62.0383 135.583 62.6193 136.926 63.1988 138.266C60.7466 138.855 58.2977 139.461 55.8579 140.106ZM60.6134 127.821C63.2166 127.44 65.8213 127.072 68.4281 126.705C68.6555 127.909 68.8772 129.114 69.1157 130.314C66.7867 130.785 64.4492 131.276 62.1071 131.791C61.6154 130.467 61.1164 129.143 60.6134 127.821ZM64.3926 137.981C63.8887 136.613 63.3836 135.24 62.8762 133.867C65.0821 133.295 67.2892 132.729 69.4977 132.172C69.7842 133.581 70.0671 134.993 70.3663 136.396C70.3847 136.484 70.4182 136.554 70.4586 136.615C68.4339 137.051 66.4107 137.505 64.3926 137.981ZM76.5289 135.542C76.3608 135.48 76.1746 135.445 75.9547 135.488C74.4676 135.775 72.9834 136.087 71.4994 136.401C71.5202 136.322 71.5275 136.236 71.5139 136.14C71.3089 134.704 71.0962 133.266 70.8844 131.829C72.354 131.462 73.8235 131.093 75.2953 130.738C75.6595 130.65 75.8437 130.391 75.8874 130.109C76.0897 131.922 76.2949 133.735 76.5289 135.542ZM75.8417 129.691C75.7254 129.353 75.4202 129.085 74.9634 129.171C73.5238 129.44 72.0711 129.732 70.6215 130.02C70.445 128.837 70.2584 127.655 70.0763 126.473C71.6931 126.245 73.3093 126.019 74.927 125.786C75.1332 125.757 75.2809 125.644 75.3741 125.493C75.5328 126.89 75.6861 128.29 75.8417 129.691ZM74.7179 120.177C74.9133 121.597 75.0849 123.026 75.2519 124.458C75.1414 124.357 74.9988 124.291 74.8145 124.305C73.1622 124.43 71.4836 124.596 69.8111 124.756C69.4334 122.351 69.0428 119.95 68.6338 117.553C70.3999 117.097 72.1625 116.63 73.9159 116.134C73.9946 116.112 74.0507 116.07 74.1137 116.035C74.311 117.416 74.5281 118.794 74.7179 120.177Z" fill="#96C2ED"/>
<path d="M37.7731 157.532C37.0492 156.77 35.2335 157.298 35.0711 158.758C34.9913 159.471 35.4648 159.996 36.0617 159.83C36.1049 159.818 36.144 159.797 36.1846 159.779C36.3762 160.113 36.7126 160.324 37.1168 160.214C38.1778 159.927 38.4298 158.223 37.7731 157.532Z" fill="#96C2ED"/>
<path d="M75.3028 148.043C75.004 148.035 74.6998 148.154 74.5454 148.408C74.2885 148.831 74.2181 149.274 74.2952 149.708C74.2811 149.955 74.3392 150.213 74.473 150.433C74.8381 151.036 75.5941 151.299 76.242 151.01C76.9159 150.71 77.2616 149.97 77.1982 149.268C77.1218 148.418 76.0688 148.066 75.3028 148.043Z" fill="#96C2ED"/>
<path d="M444.562 209.427C447.834 203.26 450.597 196.831 452.863 190.223C454.263 186.141 457.042 180.457 456.058 176.052C454.319 168.275 441.431 161.986 435.158 158.625C423.978 152.635 411.691 148.169 399.57 144.493C393.278 142.584 385.068 141.828 383.76 150.115C383.721 150.362 383.751 150.577 383.812 150.772C383.123 152.679 382.429 154.634 381.744 156.609C380.93 156.57 380.226 157.715 381.021 158.283C381.06 158.31 381.098 158.336 381.137 158.364C378.331 166.645 375.896 175.357 375.579 183.805C375.19 194.144 382.848 198.969 390.87 203.825C401.852 210.474 413.679 215.959 425.935 219.78C436.4 223.045 439.786 218.43 444.562 209.427ZM385.347 151.693C385.75 151.632 386.115 151.381 386.314 150.928C386.492 151.044 386.675 151.154 386.854 151.269C386.348 151.337 385.865 151.639 385.623 152.079C385.392 152.497 385.222 152.812 385.074 153.093C385.048 153.086 385.022 153.079 384.996 153.074C385.115 152.614 385.221 152.15 385.347 151.693ZM445.99 182.319C445.034 181.799 444.092 181.259 443.144 180.727C443.939 181.086 444.725 181.456 445.527 181.803C446.994 182.438 448.229 181.163 448.18 179.962C448.393 180.08 448.604 180.204 448.816 180.324C448.56 180.908 448.323 181.49 448.1 182.076C447.447 182.003 446.743 182.073 445.99 182.319ZM423.625 171.234C422.813 170.848 421.996 170.474 421.188 170.082C421.169 170.069 421.163 170.052 421.144 170.039C419.168 168.686 417.167 167.387 415.156 166.099C418.454 167.491 421.788 168.802 425.15 170.029C424.328 169.988 423.798 170.522 423.625 171.234ZM398.154 164.98C399.112 165.268 399.657 164.613 399.728 163.856C399.766 164.182 399.912 164.492 400.184 164.746C399.84 164.955 399.567 165.266 399.399 165.619C398.979 165.406 398.56 165.188 398.141 164.974C398.146 164.977 398.15 164.978 398.154 164.98ZM443.859 185.598C443.889 185.543 443.907 185.486 443.933 185.429C444.096 185.496 444.259 185.56 444.422 185.626C444.649 185.716 444.864 185.744 445.075 185.757C445.585 186.063 446.231 186.152 446.889 185.824C446.861 185.925 446.831 186.021 446.803 186.123C446.755 186.309 446.764 186.472 446.766 186.637C445.794 186.293 444.821 185.952 443.859 185.598ZM436.3 162.779C442.335 166.235 448.01 169.67 450.527 174.751C428.159 168.743 407.569 159.882 386.899 149.496C392.401 139.801 430.273 159.328 436.3 162.779ZM384.264 155.946C384.316 155.98 384.366 156.013 384.418 156.047C384.413 156.253 384.407 156.463 384.398 156.718C384.369 157.6 385.232 158.135 386 158.175C386.615 158.171 387.216 158.221 387.815 158.283L387.865 158.316C387.567 158.698 387.48 159.233 387.781 159.647C386.468 158.966 385.158 158.29 383.841 157.608C383.981 157.053 384.126 156.501 384.264 155.946ZM410.456 210.673C403.307 207.496 396.305 203.842 389.715 199.615C384.379 196.193 379.127 193.061 378.511 186.005C378.16 181.97 379.457 177.351 380.231 173.421C381.127 168.874 382.167 164.349 383.272 159.843C403.273 173.617 426.564 183.294 449.427 191.029C447.175 197.828 444.382 205.126 440.417 210.676C432.171 222.215 420.68 215.217 410.456 210.673Z" fill="#96C2ED"/>
<path d="M418.865 196.131C419.797 193.824 420.728 191.518 421.647 189.207C421.925 188.507 421.709 187.776 421.021 187.377C410.202 181.102 399.088 175.487 387.571 170.671C386.919 170.398 386.374 170.841 386.254 171.358C386.044 171.476 385.862 171.644 385.766 171.924C385.032 174.052 384.735 174.981 384.144 177.157C383.996 177.704 384.363 178.512 384.917 178.731C396.316 183.241 406.862 189.105 416.707 196.498C417.377 196.997 418.502 197.026 418.865 196.131ZM388.358 173.089C394.328 175.899 400.243 178.811 406.058 181.944C408.903 183.476 412.31 184.86 414.867 186.844C418.375 189.565 418.311 190.185 416.997 193.354C412.444 189.994 407.762 186.855 402.828 184.075C398.311 181.531 386.784 178.927 388.358 173.089Z" fill="#96C2ED"/>
<path d="M439.639 201.42C440.037 199.552 441.047 197.173 440.731 195.248C440.45 193.533 439.102 193.078 437.643 192.409C434.983 191.19 432.287 190.051 429.617 188.853C428.328 188.275 426.961 187.255 425.525 187.727C424.843 187.952 424.353 188.75 424.622 189.464C424.659 189.564 424.698 189.663 424.735 189.763C424.91 190.228 425.339 190.606 425.826 190.701C425.266 192.606 424.975 194.546 424.643 196.539C424.564 197.018 424.776 197.663 425.277 197.855C429.501 199.488 433.796 200.942 438.07 202.436C438.752 202.673 439.504 202.049 439.639 201.42ZM427.39 190.604C428.539 191.067 430.201 192.056 430.7 192.275C432.04 192.861 433.379 193.452 434.72 194.04C435.841 194.532 437.568 194.822 438.051 196.065C438.288 196.679 437.837 198.213 437.457 199.447C433.978 198.241 430.495 197.031 426.984 195.924C426.914 194.136 427.12 192.369 427.39 190.604Z" fill="#96C2ED"/>
<path d="M264.493 26.5277C264.019 25.5318 263.123 24.9503 262.138 24.7802C263.021 23.5133 263.215 21.7424 262.337 20.4344C261.457 19.1245 259.908 18.6519 258.438 18.882C259.344 16.6944 258.152 14.1105 255.454 13.5451C253.413 13.117 251.44 14.0497 249.679 15.0043C247.285 16.3027 245.02 17.8303 242.88 19.5116C242.99 16.7726 241.755 13.9238 239.905 12.024C237.853 9.9181 234.391 8.4261 231.902 10.75C231.605 11.0276 231.656 11.3976 231.865 11.6403C231.569 11.9501 231.411 12.4073 231.601 12.8923C233.771 18.4492 234.795 23.7327 229.595 28.1393C226.149 31.0587 221.761 32.9646 217.818 35.1098C217.307 35.3879 217.611 36.2916 218.19 36.0798C218.48 35.9736 218.775 35.8652 219.072 35.7554C219.976 40.614 222.363 45.3226 225.55 49.0665C225.518 49.0934 225.487 49.1198 225.457 49.1462C224.444 50.0043 225.682 51.5989 226.812 50.9666C233.274 47.3502 239.904 44.2579 246.969 42.0042C250.206 40.9722 253.487 40.1114 256.806 39.3973C259.185 38.8854 261.997 38.7116 264.117 37.3398C267.527 35.133 267.575 29.8547 264.445 29.2904C264.832 28.4041 264.901 27.3843 264.493 26.5277ZM259.387 24.4854C258.391 24.7218 258.524 25.9433 259.269 26.2532C259.456 26.5014 259.798 26.6477 260.113 26.4655C261.072 25.9116 262.644 26.2027 262.921 27.4047C263.172 28.4884 262.357 29.2352 261.441 29.6062C260.42 30.0193 261.113 31.5009 262.095 31.311C262.289 31.2736 262.468 31.1989 262.647 31.1254C265.057 33.7076 264.876 35.2689 262.037 35.782C260.884 36.4624 259.645 36.8531 258.322 36.9559C257.008 37.2756 255.65 37.4533 254.328 37.7435C250.685 38.5421 247.085 39.5506 243.555 40.769C237.716 42.7853 232.088 45.352 226.718 48.4058C224.124 44.1265 222.345 39.8526 220.896 35.0679C223.176 34.1883 225.54 33.1745 227.712 31.9165C228.056 33.4772 229.082 35.1547 229.618 36.2839C230.761 38.6918 232.293 42.4923 234.656 43.9747C234.848 44.0954 235.16 44.1146 235.357 43.9814C235.629 43.7967 235.658 43.7777 235.882 43.5212C236.108 43.2626 235.847 42.9143 235.533 43.0523C235.739 42.9623 235.483 42.8393 234.809 41.7273C234.131 40.6104 233.499 39.4677 232.901 38.3074C232.301 37.1447 231.735 35.9653 231.231 34.7572C231.19 34.6601 230.113 32.338 229.833 31.2879C230.032 31.0891 230.174 30.8245 230.16 30.5751L230.148 30.3355C230.147 30.3253 230.143 30.3181 230.143 30.3079C231.424 29.355 232.592 28.2932 233.538 27.0623C237.188 22.3161 235.718 16.7934 233.532 11.8273C233.48 11.7103 233.409 11.6342 233.339 11.554C235.864 10.7983 238.414 13.085 239.549 15.1425C240.64 17.1202 240.649 19.0903 240.587 21.2958C240.555 22.4281 242.182 22.6461 242.535 21.581C242.542 21.5594 242.543 21.5368 242.55 21.5157C244.475 20.2681 246.407 19.0299 248.4 17.8925C249.404 17.3189 250.414 16.7118 251.468 16.2337C251.986 16.0293 252.505 15.8252 253.024 15.6203C255.171 14.8594 256.088 16.0448 255.777 19.1771C255.283 19.6264 255.404 20.1961 255.769 20.5379C255.786 20.9631 256.346 21.3001 256.797 20.9499C257.912 20.0834 259.903 20.0669 260.741 21.3138C261.542 22.5079 260.723 24.1679 259.387 24.4854Z" fill="#96C2ED"/>
<path d="M134.914 23.492C123.146 18.416 108.625 17.6393 96.8675 23.2031C85.8019 28.4396 81.1353 39.9524 85.6601 51.368C91.0524 64.9727 106.13 70.211 119.833 69.2692C121.192 74.634 125.536 78.9488 130.479 81.2259C131.358 81.6312 132.131 80.9691 132.006 80.0575C131.483 76.2591 131.275 72.4496 131.294 68.6227C142.689 68.7125 156.555 63.2642 156.937 50.2777C157.309 37.6277 145.53 28.0718 134.914 23.492ZM130.485 66.2236C130.311 66.1805 130.125 66.1695 129.941 66.2034C129.758 66.2309 129.579 66.2805 129.398 66.319C129.387 66.3236 129.372 66.3227 129.361 66.3272C129.199 66.363 129.034 66.3868 128.873 66.4318C127.798 66.6959 128.009 68.4191 129.138 68.3732C129.142 68.3732 129.147 68.3723 129.152 68.3723C129.116 71.7728 129.321 75.1494 129.736 78.5205C125.939 76.3251 123.362 73.0796 121.335 69.1564C121.382 69.1518 121.429 69.1509 121.476 69.1454C122.467 69.0408 122.519 67.5634 121.476 67.568C107.927 67.6231 92.107 63.488 87.4542 49.1157C82.0572 32.4453 97.4441 22.9197 112.151 21.9715C125.208 21.1296 139.22 25.8791 148.196 35.5716C153.478 41.2748 156.984 50.2502 152.369 57.4574C147.958 64.3436 138.109 66.164 130.485 66.2236Z" fill="#96C2ED"/>
<path d="M103.415 46.9261C102.608 45.617 100.846 44.9842 99.3966 45.5629C98.9535 45.7397 98.5829 46.0344 98.2963 46.3919C97.2958 47.0324 96.8166 48.3531 96.9751 49.4931C97.1638 50.8486 98.1927 51.9123 99.5276 52.2398C102.619 52.9983 105.063 49.5994 103.415 46.9261Z" fill="#96C2ED"/>
<path d="M122.558 47.8791C121.236 45.6621 117.406 45.7993 116.971 48.6372C116.874 49.2765 117.057 49.9502 117.435 50.4673C117.711 51.2729 118.296 51.9694 119.122 52.2244C121.573 52.9798 123.885 50.1059 122.558 47.8791Z" fill="#96C2ED"/>
<path d="M139.907 46.5312C138.512 46.0205 136.771 46.5979 136.219 47.984C136.093 48.3001 136.039 48.6352 136.051 48.9666C135.767 49.9339 136.06 50.9859 136.898 51.6542C138.898 53.2502 142.097 51.9298 141.94 49.3395C141.866 48.1227 141.108 46.9707 139.907 46.5312Z" fill="#96C2ED"/>
<path d="M401.423 68.9061C406.067 64.9277 407.76 57.8566 405.659 51.4721C402.33 41.3568 391.16 35.1186 380.927 38.0914C371.214 40.9125 365.5 51.9063 368.964 61.5288C373.054 72.8928 384.213 74.4561 394.471 72.145C396.494 77.844 402.115 101.244 409.8 99.2245C419.475 96.6813 403.98 72.8819 401.423 68.9061ZM392.653 71.1961C384.383 72.0792 376.007 71.2446 371.605 62.8516C367.529 55.0812 370.816 45.1881 378.443 41.0963C386.437 36.8089 396.666 40.0889 401.6 47.458C407.289 55.9533 404.889 69.1548 393.392 70.4721C392.956 70.5224 392.713 70.8497 392.653 71.1961ZM410.951 95.8274C408.103 96.578 406.161 95.9783 405.125 94.0284C399.995 88.2435 399.124 78.7536 395.321 71.954C395.348 71.9476 395.374 71.943 395.4 71.9366C395.54 71.9019 395.628 71.8297 395.692 71.7456C397.364 71.3808 398.86 70.7281 400.171 69.855C402.535 73.7448 404.803 77.6794 406.798 81.7776C408.102 84.4571 409.686 87.2827 410.417 90.177C411.056 91.9916 411.234 93.8757 410.951 95.8274Z" fill="#96C2ED"/>
<path d="M382.438 45.209C376.77 48.4182 374.335 56.05 377.069 62.033C380.366 69.2452 388.56 70.6248 395.306 68.3323C395.493 68.8505 396.046 69.2332 396.642 68.8542C411.477 59.4131 397.407 36.7334 382.438 45.209ZM395.898 67.0246C389.988 68.4743 382.714 68.1165 379.217 62.2709C376.345 57.4692 377.846 50.5668 382.404 47.4379C395.005 38.788 409.066 58.2715 395.898 67.0246Z" fill="#96C2ED"/>
<path d="M112.616 204.727C107.865 200.773 102.512 195.49 96.4222 193.797C96.0507 193.594 95.5991 193.611 95.2867 194.078C81.4077 214.752 66.5103 234.831 50.2132 253.657C49.8167 254.115 49.8628 254.874 50.3354 255.264C54.9994 259.112 59.5433 263.062 63.8018 267.362C67.0741 270.667 69.9598 274.799 73.6797 277.626C73.5545 278.266 74.3355 278.984 74.9563 278.532C74.9683 278.54 74.9783 278.549 74.9903 278.556C75.2026 278.691 75.461 278.418 75.3819 278.203C75.3809 278.201 75.3798 278.198 75.3788 278.196C95.3668 262.116 113.265 242.327 129.664 222.668C130.32 221.881 129.721 220.949 128.961 220.772C124.588 214.618 118.358 209.505 112.616 204.727ZM74.6239 276.496C71.633 270.504 65.1326 265.157 60.4495 260.85C58.8184 259.35 56.8859 257.956 55.3479 256.367C52.9668 253.908 52.9928 254.425 54.9083 251.536C57.4526 247.7 60.8881 244.276 63.7678 240.677C75.3478 226.203 86.272 211.22 96.6024 195.826C108.847 201.496 117.439 212.942 127.758 221.275C111.015 240.791 92.7203 258.322 74.6239 276.496Z" fill="#96C2ED"/>
<path d="M101.481 200.251C100.791 201.701 99.7787 203.262 98.0126 203.456C97.3007 203.534 96.5549 203.349 95.9681 202.933C95.3124 202.469 95.1912 201.822 94.7567 201.206C94.4984 200.839 94.0598 200.952 93.8586 201.273C93.7044 201.287 93.5582 201.359 93.4541 201.515C82.6511 217.7 70.228 232.436 58.8002 248.121C58.6721 248.297 58.6831 248.48 58.7652 248.619C58.7061 248.614 58.651 248.601 58.59 248.599C57.8671 248.571 57.7079 249.697 58.3397 249.957C59.3789 250.386 60.3051 250.803 60.6815 251.96C61.0219 253.009 60.6475 254.069 59.9506 254.877C59.8825 254.956 59.8555 255.044 59.8465 255.134C59.6773 255.421 59.6553 255.807 59.9466 256.116C63.7312 260.132 67.8612 264.695 72.4297 267.81C72.4327 267.812 72.4367 267.81 72.4407 267.813C72.4317 267.833 72.4177 267.847 72.4087 267.867C72.1804 268.389 72.9363 268.949 73.2927 268.439C73.9255 267.531 74.8456 266.981 75.951 266.875C76.4646 266.826 76.9892 266.875 77.4748 267.056C77.6039 267.104 77.9514 267.27 78.2127 267.449C78.2077 267.456 78.2007 267.461 78.1967 267.468C77.653 268.422 78.9776 269.238 79.7526 268.624C79.9698 268.453 80.0719 268.261 80.125 268.064C93.9076 254.228 106.902 239.628 120.743 225.838C121.206 225.377 120.798 224.792 120.289 224.703C120.256 224.634 120.208 224.57 120.129 224.515C117.59 222.749 117.386 219.507 119.095 217.118C119.366 216.738 119.243 216.227 118.956 215.933C118.957 215.875 118.946 215.816 118.898 215.762C114.414 210.677 108.389 206.573 103.455 201.87C102.759 201.207 101.811 202.329 102.486 202.997C107.016 207.479 112.213 212.94 117.954 215.928C115.035 218.436 115.986 223.564 119.264 225.278C113.449 231.019 107.604 236.781 101.857 242.641C105.141 237.537 106.467 231.563 102.358 225.938C97.3859 219.132 86.8912 217.484 80.5395 223.126C85.2582 216.511 89.7296 209.738 94.0468 203.083C94.8087 204.277 96.648 205.064 97.8274 205.055C100.281 205.037 102.253 202.917 102.938 200.716C103.202 199.87 101.846 199.482 101.481 200.251ZM102.647 231.299C104.127 237.761 99.6636 243.239 95.3334 247.49C95.1171 247.702 95.045 247.936 95.0721 248.154C88.8415 250.751 81.3435 247.716 77.3607 242.001C72.8612 235.545 76.5757 228.133 82.4318 223.935C89.5103 218.86 100.652 222.582 102.647 231.299ZM76.9632 244.324C81.4816 249.454 89.0258 252.587 94.9649 249.786C89.7176 255.331 84.6064 260.993 79.7556 266.855C79.4472 266.467 79.0307 266.135 78.6993 265.951C76.801 264.903 74.1858 265.371 72.8812 267.069C69.6944 262.678 65.1719 258.738 61.1461 255.119C62.8932 253.04 62.1192 249.447 59.421 248.73C59.438 248.717 59.456 248.711 59.472 248.694C64.7464 243.372 69.6734 237.556 74.344 231.494C72.7561 235.625 73.1966 240.048 76.9632 244.324Z" fill="#96C2ED"/>
</svg>
